<svg width="283" height="172" viewBox="0 0 283 172" fill="none" xmlns="http://www.w3.org/2000/svg">
<g clip-path="url(#clip0_17_1684)">
<rect width="282.5" height="172" rx="16" fill="#F4F8FF"/>
<g clip-path="url(#clip1_17_1684)">
<mask id="mask0_17_1684" style="mask-type:luminance" maskUnits="userSpaceOnUse" x="169" y="62" width="135" height="135">
<path d="M293.139 62.6502L169.6 73.3281L180.278 196.868L303.817 186.19L293.139 62.6502Z" fill="white"/>
</mask>
<g mask="url(#mask0_17_1684)">
<path fill-rule="evenodd" clip-rule="evenodd" d="M233.166 88.7715C228.702 89.1573 225.396 93.0885 225.782 97.5521L205 99.3484C203.622 83.407 215.428 69.367 231.369 67.9892C247.311 66.6113 261.351 78.4173 262.729 94.3587C264.106 110.3 252.301 124.34 236.359 125.718L234.563 104.936C239.026 104.55 242.332 100.619 241.946 96.155C241.56 91.6914 237.629 88.3857 233.166 88.7715ZM277.696 126.216C277.31 121.753 273.379 118.447 268.915 118.833L267.119 98.0504C283.06 96.6725 297.1 108.479 298.478 124.42C299.856 140.361 288.05 154.401 272.108 155.779C256.167 157.157 242.127 145.351 240.749 129.41L261.532 127.613C261.917 132.077 265.849 135.382 270.312 134.997C274.776 134.611 278.081 130.68 277.696 126.216ZM204.501 140.685C200.038 141.071 196.107 137.765 195.721 133.302C195.335 128.838 198.641 124.907 203.104 124.521C207.568 124.135 211.499 127.441 211.885 131.904L232.667 130.108C231.289 114.167 217.249 102.361 201.308 103.739C185.367 105.116 173.561 119.156 174.939 135.098C176.316 151.039 190.356 162.845 206.298 161.467L204.501 140.685ZM240.251 170.746C244.714 170.36 248.02 166.429 247.634 161.966L268.417 160.169C269.795 176.111 257.989 190.151 242.047 191.529C226.106 192.906 212.066 181.101 210.688 165.159C209.31 149.218 221.116 135.178 237.058 133.8L238.854 154.582C234.39 154.968 231.085 158.899 231.47 163.363C231.856 167.826 235.787 171.132 240.251 170.746Z" fill="url(#paint0_linear_17_1684)"/>
</g>
</g>
<g clip-path="url(#clip2_17_1684)">
<mask id="mask1_17_1684" style="mask-type:luminance" maskUnits="userSpaceOnUse" x="169" y="62" width="135" height="135">
<path d="M293.139 62.6502L169.6 73.3281L180.278 196.868L303.817 186.19L293.139 62.6502Z" fill="white"/>
</mask>
<g mask="url(#mask1_17_1684)">
<path fill-rule="evenodd" clip-rule="evenodd" d="M233.166 88.7715C228.702 89.1573 225.396 93.0885 225.782 97.5521L205 99.3484C203.622 83.407 215.428 69.367 231.369 67.9892C247.311 66.6113 261.351 78.4173 262.729 94.3587C264.106 110.3 252.301 124.34 236.359 125.718L234.563 104.936C239.026 104.55 242.332 100.619 241.946 96.155C241.56 91.6914 237.629 88.3857 233.166 88.7715ZM277.696 126.216C277.31 121.753 273.379 118.447 268.915 118.833L267.119 98.0504C283.06 96.6725 297.1 108.479 298.478 124.42C299.856 140.361 288.05 154.401 272.108 155.779C256.167 157.157 242.127 145.351 240.749 129.41L261.532 127.613C261.917 132.077 265.849 135.382 270.312 134.997C274.776 134.611 278.081 130.68 277.696 126.216ZM204.501 140.685C200.038 141.071 196.107 137.765 195.721 133.302C195.335 128.838 198.641 124.907 203.104 124.521C207.568 124.135 211.499 127.441 211.885 131.904L232.667 130.108C231.289 114.167 217.249 102.361 201.308 103.739C185.367 105.116 173.561 119.156 174.939 135.098C176.316 151.039 190.356 162.845 206.298 161.467L204.501 140.685ZM240.251 170.746C244.714 170.36 248.02 166.429 247.634 161.966L268.417 160.169C269.795 176.111 257.989 190.151 242.047 191.529C226.106 192.906 212.066 181.101 210.688 165.159C209.31 149.218 221.116 135.178 237.058 133.8L238.854 154.582C234.39 154.968 231.085 158.899 231.47 163.363C231.856 167.826 235.787 171.132 240.251 170.746Z" fill="url(#paint1_linear_17_1684)"/>
</g>
</g>
</g>
<defs>
<linearGradient id="paint0_linear_17_1684" x1="169.6" y1="73.3281" x2="303.817" y2="186.19" gradientUnits="userSpaceOnUse">
<stop stop-color="#FFF6B7"/>
<stop offset="1" stop-color="#FB758A"/>
</linearGradient>
<linearGradient id="paint1_linear_17_1684" x1="169.6" y1="73.3281" x2="303.817" y2="186.19" gradientUnits="userSpaceOnUse">
<stop stop-color="#C0DCFD"/>
<stop offset="1" stop-color="#3D86F4"/>
</linearGradient>
<clipPath id="clip0_17_1684">
<rect width="282.5" height="172" rx="16" fill="white"/>
</clipPath>
<clipPath id="clip1_17_1684">
<rect width="124" height="124" fill="white" transform="translate(169.6 73.3281) rotate(-4.94)"/>
</clipPath>
<clipPath id="clip2_17_1684">
<rect width="124" height="124" fill="white" transform="translate(169.6 73.3281) rotate(-4.94)"/>
</clipPath>
</defs>
</svg>
