<svg width="192" height="138" viewBox="0 0 192 138" fill="none" xmlns="http://www.w3.org/2000/svg">
<circle cx="96" cy="77.5" r="54" fill="#F2F4F7"/>
<path d="M114.667 93.8332V86.8332H84.334C80.468 86.8332 77.334 89.9672 77.334 93.8332M88.534 100.833H107.201C109.814 100.833 111.121 100.833 112.119 100.325C112.997 99.8771 113.711 99.1632 114.159 98.2851C114.667 97.2869 114.667 95.9801 114.667 93.3665V61.6332C114.667 59.0196 114.667 57.7128 114.159 56.7145C113.711 55.8365 112.997 55.1225 112.119 54.6751C111.121 54.1665 109.814 54.1665 107.201 54.1665H88.534C84.6136 54.1665 82.6534 54.1665 81.1561 54.9295C79.8389 55.6006 78.7681 56.6714 78.0969 57.9886C77.334 59.486 77.334 61.4461 77.334 65.3665V89.6332C77.334 93.5535 77.334 95.5137 78.0969 97.0111C78.7681 98.3282 79.8389 99.3991 81.1561 100.07C82.6534 100.833 84.6136 100.833 88.534 100.833Z" stroke="#475467" stroke-width="3.5" stroke-linecap="round" stroke-linejoin="round"/>
<circle cx="42" cy="23.5" r="8" fill="#F2F4F7"/>
<circle cx="152" cy="120.5" r="6" fill="#F2F4F7"/>
<circle cx="32" cy="116.5" r="10" fill="#F2F4F7"/>
<circle cx="175" cy="48.5" r="10" fill="#F2F4F7"/>
<circle cx="145" cy="12.5" r="7" fill="#F2F4F7"/>
</svg>
