<svg width="108" height="107" viewBox="0 0 108 107" fill="none" xmlns="http://www.w3.org/2000/svg">
<circle cx="50.2793" cy="55" r="30" fill="#FEF3F2"/>
<circle cx="50.2793" cy="55" r="24" fill="#D92D20"/>
<path d="M58.7872 61.122L52.6653 55.0001L58.7872 48.8782C59.4481 48.2173 59.4481 47.1532 58.7872 46.4923C58.1263 45.8313 57.0622 45.8313 56.4013 46.4923L50.2794 52.6142L44.1575 46.4923C43.4966 45.8313 42.4325 45.8313 41.7716 46.4923C41.1106 47.1532 41.1106 48.2173 41.7716 48.8782L47.8935 55.0001L41.7716 61.122C41.1106 61.7829 41.1106 62.847 41.7716 63.5079C42.4325 64.1688 43.4966 64.1688 44.1575 63.5079L50.2794 57.386L56.4013 63.5079C57.0622 64.1688 58.1263 64.1688 58.7872 63.5079C59.4435 62.847 59.4435 61.7782 58.7872 61.122Z" fill="white"/>
<path d="M47.4685 5.24089L45.2965 8.09793L46.668 8.875L48.063 5.67617H48.1082L49.5251 8.85162L50.92 8.05265L48.7714 5.2628V5.21753L52.1323 5.6528V4.09866L48.7495 4.53248V4.4872L50.92 1.69881L49.6185 0.875L48.1316 4.09866H48.0863L46.7148 0.898369L45.2746 1.72072L47.4685 4.46383V4.51057L44.0184 4.09866V5.6528L47.4685 5.19562V5.24089Z" fill="#F04438"/>
<path d="M3.01268 71.8196L1.11579 74.3201L2.31454 75L3.53139 72.2003H3.57211L4.80855 74.9804L6.02843 74.2808L4.15114 71.8392V71.7999L7.08545 72.1807V70.8208L4.13153 71.2001V71.1593L6.02843 68.7207L4.88998 68L3.59171 70.8208H3.55251L2.35524 68.0196L1.09618 68.7403L3.01268 71.1396V71.1804L-3.44073e-05 70.8208V72.1807L3.01268 71.7803V71.8196Z" fill="#F04438"/>
<path d="M90.2771 32.6164L91.0633 31.9295L89.3075 30.3867L89.3309 30.3663L91.7345 30.2022L91.5216 29.1652L89.2875 29.8744L89.2671 29.851L90.2483 27.7308L89.2266 27.3792L88.7664 29.6976L88.7431 29.718L87.4779 27.8262L86.6917 28.5132L88.4066 30.0319L88.3832 30.0523L86.0142 30.1862L86.1735 31.2089L88.4597 30.5366L88.4795 30.5592L87.468 32.6661L88.5199 33.031L88.9378 30.7098L88.9611 30.6894L90.2771 32.6164Z" fill="#F04438"/>
<path d="M6.85352 17.0508C6.85352 15.3939 8.19666 14.0508 9.85352 14.0508C11.5104 14.0508 12.8535 15.3939 12.8535 17.0508C12.8535 18.7076 11.5104 20.0508 9.85352 20.0508C8.19666 20.0508 6.85352 18.7076 6.85352 17.0508ZM11.7288 17.0508C11.7288 16.0151 10.8892 15.1755 9.85352 15.1755C8.81782 15.1755 7.97822 16.0151 7.97822 17.0508C7.97822 18.0865 8.81782 18.9261 9.85352 18.9261C10.8892 18.9261 11.7288 18.0865 11.7288 17.0508Z" fill="#F97066"/>
<path d="M26.8418 12.3008C24.8101 12.0468 20.6704 10.0913 20.3656 4.30078" stroke="#F4C36D" stroke-width="1.52381" stroke-linecap="round" stroke-linejoin="round"/>
<circle cx="10.8535" cy="47.5508" r="3" transform="rotate(180 10.8535 47.5508)" fill="#F79009"/>
<circle cx="76.3535" cy="8.55078" r="3.5" transform="rotate(180 76.3535 8.55078)" fill="#FEDF89"/>
<path d="M62.8612 95.6501L65.507 95.5007L65.3304 94.359L62.7762 95.1105L62.7537 95.0847L63.8843 92.73L62.7078 92.3232L62.242 94.9154L62.2162 94.9379L60.7459 92.7869L59.8678 93.5543L61.8294 95.2759L61.8036 95.2984L59.1177 95.4829L59.3565 96.6409L61.8501 95.8489L61.8739 95.8762L60.7789 98.2427L61.9185 98.6363L62.4341 96.046L62.4599 96.0235L63.872 98.1369L64.7502 97.3696L62.8354 95.6726L62.8612 95.6501Z" fill="#F04438"/>
<path d="M93.0714 79.8569L90.62 80.0242L90.8373 81.0814L93.1148 80.3595L93.1352 80.3829L92.1364 82.5438L93.1767 82.903L93.647 80.5385L93.6704 80.5181L94.96 82.4469L95.7612 81.7468L94.0137 80.1982L94.037 80.1778L96.4523 80.0407L96.2908 78.9987L93.959 79.6843L93.9386 79.6609L94.9706 77.5122L93.8979 77.1401L93.472 79.5069L93.4479 79.5279L92.1061 77.5637L91.3049 78.2639L93.0947 79.8365L93.0714 79.8569Z" fill="#F04438"/>
<path d="M96.2793 100C96.2793 101.657 94.9362 103 93.2793 103C91.6224 103 90.2793 101.657 90.2793 100C90.2793 98.3431 91.6224 97 93.2793 97C94.9362 97 96.2793 98.3431 96.2793 100ZM91.404 100C91.404 101.036 92.2436 101.875 93.2793 101.875C94.315 101.875 95.1546 101.036 95.1546 100C95.1546 98.9643 94.315 98.1247 93.2793 98.1247C92.2436 98.1247 91.404 98.9643 91.404 100Z" fill="#F97066"/>
<path d="M44.2793 104C44.2793 105.657 42.9362 107 41.2793 107C39.6224 107 38.2793 105.657 38.2793 104C38.2793 102.343 39.6224 101 41.2793 101C42.9362 101 44.2793 102.343 44.2793 104ZM39.344 104C39.344 105.069 40.2105 105.935 41.2793 105.935C42.3481 105.935 43.2146 105.069 43.2146 104C43.2146 102.931 42.3481 102.065 41.2793 102.065C40.2105 102.065 39.344 102.931 39.344 104Z" fill="#F97066"/>
<path d="M76.291 87.75C78.3228 88.004 82.4624 89.9595 82.7672 95.75" stroke="#F4C36D" stroke-width="1.52381" stroke-linecap="round" stroke-linejoin="round"/>
<circle cx="104.28" cy="52.5" r="3" fill="#F79009"/>
<circle cx="22.7793" cy="93.5" r="3.5" fill="#FEDF89"/>
</svg>
