<svg width="116" height="102" viewBox="0 0 116 102" fill="none" xmlns="http://www.w3.org/2000/svg">
<circle cx="59.0005" cy="49.5" r="30" fill="#FFFAEB"/>
<circle cx="59.0005" cy="49.5" r="24" fill="#F79009"/>
<path d="M59.0146 65.207C57.9809 65.207 57.1289 64.878 56.4584 64.2201C55.8159 63.5323 55.4946 62.6949 55.4946 61.708C55.4946 60.7211 55.8159 59.8987 56.4584 59.2407C57.1289 58.5529 57.9809 58.209 59.0146 58.209C60.0482 58.209 60.8863 58.5529 61.5288 59.2407C62.1713 59.8987 62.4926 60.7211 62.4926 61.708C62.4926 62.6949 62.1713 63.5323 61.5288 64.2201C60.8863 64.878 60.0482 65.207 59.0146 65.207Z" fill="white"/>
<path d="M58.4693 55.9866C57.1664 55.9866 56.0988 54.9524 56.0574 53.6502L55.4868 35.6968C55.4436 34.3347 56.536 33.207 57.8987 33.207H59.9147C61.2774 33.207 62.3698 34.3347 62.3266 35.6968L61.756 53.6502C61.7146 54.9524 60.647 55.9866 59.3441 55.9866H58.4693Z" fill="white"/>
<path d="M9.00049 11C9.00049 9.34315 10.3436 8 12.0005 8C13.6573 8 15.0005 9.34315 15.0005 11C15.0005 12.6569 13.6573 14 12.0005 14C10.3436 14 9.00049 12.6569 9.00049 11ZM13.8758 11C13.8758 9.9643 13.0362 9.1247 12.0005 9.1247C10.9648 9.1247 10.1252 9.9643 10.1252 11C10.1252 12.0357 10.9648 12.8753 12.0005 12.8753C13.0362 12.8753 13.8758 12.0357 13.8758 11Z" fill="#F97066"/>
<path d="M63.0005 3C63.0005 1.34315 64.3436 0 66.0005 0C67.6573 0 69.0005 1.34315 69.0005 3C69.0005 4.65685 67.6573 6 66.0005 6C64.3436 6 63.0005 4.65685 63.0005 3ZM67.9358 3C67.9358 1.93116 67.0693 1.0647 66.0005 1.0647C64.9317 1.0647 64.0652 1.93116 64.0652 3C64.0652 4.06884 64.9317 4.9353 66.0005 4.9353C67.0693 4.9353 67.9358 4.06884 67.9358 3Z" fill="#F97066"/>
<path d="M30.9888 19.25C28.957 18.996 24.8173 17.0405 24.5126 11.25" stroke="#F4C36D" stroke-width="1.52381" stroke-linecap="round" stroke-linejoin="round"/>
<circle cx="3" cy="54.5" r="3" transform="rotate(180 3 54.5)" fill="#F79009"/>
<circle cx="94.5005" cy="13.5" r="3.5" transform="rotate(180 94.5005 13.5)" fill="#FEDF89"/>
<path d="M107 90.5C107 92.1569 105.657 93.5 104 93.5C102.344 93.5 101 92.1569 101 90.5C101 88.8431 102.344 87.5 104 87.5C105.657 87.5 107 88.8431 107 90.5ZM102.125 90.5C102.125 91.5357 102.965 92.3753 104 92.3753C105.036 92.3753 105.876 91.5357 105.876 90.5C105.876 89.4643 105.036 88.6247 104 88.6247C102.965 88.6247 102.125 89.4643 102.125 90.5Z" fill="#F97066"/>
<path d="M53.0005 98.5C53.0005 100.157 51.6573 101.5 50.0005 101.5C48.3436 101.5 47.0005 100.157 47.0005 98.5C47.0005 96.8431 48.3436 95.5 50.0005 95.5C51.6573 95.5 53.0005 96.8431 53.0005 98.5ZM48.0652 98.5C48.0652 99.5688 48.9317 100.435 50.0005 100.435C51.0693 100.435 51.9358 99.5688 51.9358 98.5C51.9358 97.4312 51.0693 96.5647 50.0005 96.5647C48.9317 96.5647 48.0652 97.4312 48.0652 98.5Z" fill="#F97066"/>
<path d="M85.0122 82.25C87.044 82.504 91.1836 84.4595 91.4884 90.25" stroke="#F4C36D" stroke-width="1.52381" stroke-linecap="round" stroke-linejoin="round"/>
<circle cx="113.001" cy="47" r="3" fill="#F79009"/>
<circle cx="21.5005" cy="88" r="3.5" fill="#FEDF89"/>
</svg>
