<svg width="178" height="130" viewBox="0 0 178 130" fill="none" xmlns="http://www.w3.org/2000/svg">
<circle cx="80" cy="75.5" r="54" fill="#F4F8FF"/>
<circle cx="36" cy="28.5" r="8" fill="#F4F8FF"/>
<circle cx="145" cy="111.5" r="6" fill="#F4F8FF"/>
<circle cx="19" cy="104.5" r="10" fill="#F4F8FF"/>
<circle cx="153" cy="54.5" r="10" fill="#F4F8FF"/>
<circle cx="121" cy="19.5" r="7" fill="#F4F8FF"/>
<path d="M80.0001 82.5C72.6032 82.5 66.0253 86.0715 61.8374 91.6139C60.936 92.8068 60.4854 93.4032 60.5001 94.2093C60.5115 94.8321 60.9026 95.6178 61.3926 96.0023C62.0268 96.5 62.9058 96.5 64.6636 96.5H95.3365C97.0944 96.5 97.9733 96.5 98.6075 96.0023C99.0975 95.6178 99.4886 94.8321 99.5 94.2093C99.5148 93.4032 99.0641 92.8068 98.1627 91.6139C93.9749 86.0715 87.3969 82.5 80.0001 82.5Z" stroke="#2A50AD" stroke-width="3.5" stroke-linecap="round" stroke-linejoin="round"/>
<path d="M80.0001 75.5C85.799 75.5 90.5001 70.799 90.5001 65C90.5001 59.201 85.799 54.5 80.0001 54.5C74.2011 54.5 69.5001 59.201 69.5001 65C69.5001 70.799 74.2011 75.5 80.0001 75.5Z" stroke="#2A50AD" stroke-width="3.5" stroke-linecap="round" stroke-linejoin="round"/>
</svg>
