<svg width="192" height="138" viewBox="0 0 192 138" fill="none" xmlns="http://www.w3.org/2000/svg">
<circle cx="96" cy="77.5" r="54" fill="#F2F4F7"/>
<path d="M107.668 83.3333V76.3203C107.668 75.9015 107.668 75.6921 107.604 75.5072C107.548 75.3438 107.456 75.1949 107.335 75.0713C107.198 74.9316 107.011 74.838 106.636 74.6507L96.0013 69.3333M77.3346 71.6666V87.5487C77.3346 88.4165 77.3346 88.8504 77.47 89.2303C77.5897 89.5662 77.7847 89.8701 78.0402 90.1189C78.3291 90.4002 78.7236 90.581 79.5125 90.9426L94.4458 97.787C95.018 98.0493 95.3041 98.1804 95.6022 98.2322C95.8663 98.278 96.1363 98.278 96.4004 98.2322C96.6985 98.1804 96.9846 98.0493 97.5568 97.787L112.49 90.9426C113.279 90.581 113.673 90.4002 113.962 90.1189C114.218 89.8701 114.413 89.5662 114.533 89.2303C114.668 88.8504 114.668 88.4165 114.668 87.5487V71.6666M72.668 69.3333L95.1665 58.084C95.4726 57.931 95.6256 57.8544 95.7862 57.8243C95.9284 57.7977 96.0743 57.7977 96.2164 57.8243C96.377 57.8544 96.53 57.931 96.8361 58.084L119.335 69.3333L96.8361 80.5826C96.53 80.7356 96.377 80.8121 96.2164 80.8422C96.0743 80.8689 95.9284 80.8689 95.7862 80.8422C95.6256 80.8121 95.4726 80.7356 95.1665 80.5826L72.668 69.3333Z" stroke="#2A50AD" stroke-width="4" stroke-linecap="round" stroke-linejoin="round"/>
<circle cx="42" cy="23.5" r="8" fill="#F2F4F7"/>
<circle cx="152" cy="120.5" r="6" fill="#F2F4F7"/>
<circle cx="32" cy="116.5" r="10" fill="#F2F4F7"/>
<circle cx="175" cy="48.5" r="10" fill="#F2F4F7"/>
<circle cx="145" cy="12.5" r="7" fill="#F2F4F7"/>
</svg>
