<svg width="140" height="140" viewBox="0 0 140 140" fill="none" xmlns="http://www.w3.org/2000/svg">
<path d="M123.055 58.5159H85.0263C76.9147 58.5159 70.3393 65.0913 70.3393 73.2029C70.3393 81.3142 76.9147 87.8899 85.0263 87.8899H123.055C131.166 87.8899 137.742 81.3142 137.742 73.2029C137.742 65.0913 131.166 58.5159 123.055 58.5159ZM53.2109 87.8899H27.8812C19.7696 87.8899 13.1942 94.4654 13.1942 102.577C13.1942 110.688 19.7696 117.264 27.8812 117.264H53.2109C61.3221 117.264 67.8979 110.688 67.8979 102.577C67.8979 94.4654 61.3222 87.8899 53.2109 87.8899ZM53.2109 30.9531H16.9448C8.83318 30.9531 2.25781 37.5288 2.25781 45.6401C2.25781 53.7517 8.83318 60.3271 16.9448 60.3271H53.2109C61.3221 60.3271 67.8979 53.7517 67.8979 45.6401C67.8979 37.5288 61.3222 30.9531 53.2109 30.9531Z" fill="#DBEBFE"/>
<path d="M118.76 21.2732C121.581 21.2732 123.869 18.9857 123.869 16.1639C123.869 13.3422 121.581 11.0547 118.76 11.0547C115.938 11.0547 113.65 13.3422 113.65 16.1639C113.65 18.9857 115.938 21.2732 118.76 21.2732Z" fill="#75E0A7"/>
<path d="M127.818 101.852C130.235 101.852 132.193 99.8928 132.193 97.4766C132.193 95.0603 130.235 93.1016 127.818 93.1016C125.402 93.1016 123.443 95.0603 123.443 97.4766C123.443 99.8928 125.402 101.852 127.818 101.852Z" fill="#FCCEEE"/>
<path d="M14.2109 78.7656C16.0231 78.7656 17.4922 77.2966 17.4922 75.4844C17.4922 73.6722 16.0231 72.2031 14.2109 72.2031C12.3988 72.2031 10.9297 73.6722 10.9297 75.4844C10.9297 77.2966 12.3988 78.7656 14.2109 78.7656Z" fill="#3D86F4"/>
<path d="M39.5805 128.942C40.8309 128.942 41.8446 127.929 41.8446 126.678C41.8446 125.428 40.8309 124.414 39.5805 124.414C38.3301 124.414 37.3164 125.428 37.3164 126.678C37.3164 127.929 38.3301 128.942 39.5805 128.942Z" fill="#3D86F4"/>
<path d="M95.5078 127.289C97.32 127.289 98.789 125.82 98.789 124.008C98.789 122.196 97.32 120.727 95.5078 120.727C93.6956 120.727 92.2266 122.196 92.2266 124.008C92.2266 125.82 93.6956 127.289 95.5078 127.289Z" fill="#75E0A7"/>
<path d="M32.4985 22.5125C33.7489 22.5125 34.7625 21.4989 34.7625 20.2485C34.7625 18.998 33.7489 17.9844 32.4985 17.9844C31.248 17.9844 30.2344 18.998 30.2344 20.2485C30.2344 21.4989 31.248 22.5125 32.4985 22.5125Z" fill="#FDDDD6"/>
<path d="M80.1789 30.8672H27.9147C25.1421 30.8672 22.8945 33.1149 22.8945 35.8875V101.365C22.8945 104.138 25.1421 106.386 27.9147 106.386H80.1789C82.9515 106.386 85.1991 104.138 85.1991 101.365V35.8875C85.1991 33.1149 82.9516 30.8672 80.1789 30.8672Z" fill="#94C7FC"/>
<path d="M29.2227 97.0159V40.1852C29.2227 38.5318 30.563 37.1914 32.2164 37.1914H75.8325C77.486 37.1914 78.8263 38.5318 78.8263 40.1852V97.0159C78.8263 98.6693 77.486 100.01 75.8325 100.01H32.2164C30.563 100.01 29.2227 98.6693 29.2227 97.0159Z" fill="white"/>
<path d="M86.4062 71.4667V58.8668V49.7335V35.6114C86.4062 32.1832 83.5023 29.3818 79.949 29.3818H74.1304V26.9359C74.1304 26.4063 73.6854 25.9766 73.136 25.9766C72.5867 25.9766 72.1416 26.4063 72.1416 26.9359V29.3818H66.5318V26.9359C66.5318 26.4063 66.0867 25.9766 65.5374 25.9766C64.9881 25.9766 64.543 26.4063 64.543 26.9359V29.3818H58.9329V26.9359C58.9329 26.4063 58.4878 25.9766 57.9385 25.9766C57.3891 25.9766 56.9441 26.4063 56.9441 26.9359V29.3818H51.3343V26.9359C51.3343 26.4063 50.8892 25.9766 50.3399 25.9766C49.7905 25.9766 49.3454 26.4063 49.3454 26.9359V29.3818H43.7353V26.9359C43.7353 26.4063 43.2903 25.9766 42.7409 25.9766C42.1916 25.9766 41.7465 26.4063 41.7465 26.9359V29.3818H36.1367V26.9359C36.1367 26.4063 35.6916 25.9766 35.1423 25.9766C34.593 25.9766 34.1479 26.4063 34.1479 26.9359V29.3818H28.3322C24.7657 29.3818 21.875 32.1832 21.875 35.6114V102.052C21.875 105.493 24.7657 108.281 28.3322 108.281H79.949C83.7545 108.281 86.4062 105.723 86.4062 102.667C86.4062 99.6103 86.4062 89.3623 86.4062 89.3623C86.4062 81.5465 86.4062 71.4667 86.4062 71.4667ZM28.3322 105.723C26.2372 105.723 24.5268 104.086 24.5268 102.052V35.6114C24.5268 33.5903 26.2372 31.9401 28.3322 31.9401H34.1479V34.3961C34.1479 34.9258 34.593 35.3555 35.1423 35.3555C35.6916 35.3555 36.1367 34.9258 36.1367 34.3961V31.9401H41.7465V34.3961C41.7465 34.9258 42.1916 35.3555 42.7409 35.3555C43.2903 35.3555 43.7353 34.9258 43.7353 34.3961V31.9401H49.3454V34.3961C49.3454 34.9258 49.7905 35.3555 50.3399 35.3555C50.8892 35.3555 51.3343 34.9258 51.3343 34.3961V31.9401H56.9441V34.3961C56.9441 34.9258 57.3891 35.3555 57.9385 35.3555C58.4878 35.3555 58.9329 34.9258 58.9329 34.3961V31.9401H64.543V34.3961C64.543 34.9258 64.9881 35.3555 65.5374 35.3555C66.0867 35.3555 66.5318 34.9258 66.5318 34.3961V31.9401H72.1416V34.3961C72.1416 34.9258 72.5867 35.3555 73.136 35.3555C73.6854 35.3555 74.1304 34.9258 74.1304 34.3961V31.9401H79.949C82.044 31.9401 83.7545 33.5903 83.7545 35.6114V49.7335V58.8668V71.4667V89.3623C83.7545 89.3623 83.7545 100.227 83.7545 102.667C83.7545 105.106 82.4004 105.723 79.949 105.723C77.4976 105.723 28.3322 105.723 28.3322 105.723Z" fill="#010101"/>
<path d="M33.5435 44.3445L36.3749 47.5068L42.7101 41.8446" stroke="#94C7FC" stroke-width="1.61614" stroke-linecap="round" stroke-linejoin="round"/>
<rect x="48.7129" y="43.5547" width="23.0877" height="2.07789" rx="1.03895" fill="#94C7FC"/>
<path d="M33.5435 55.6843L36.3749 58.8466L42.7101 53.1844" stroke="#94C7FC" stroke-width="1.61614" stroke-linecap="round" stroke-linejoin="round"/>
<rect x="48.7129" y="54.8945" width="23.0877" height="2.07789" rx="1.03895" fill="#94C7FC"/>
<path d="M33.5435 67.0242L36.3749 70.1865L42.7101 64.5242" stroke="#94C7FC" stroke-width="1.61614" stroke-linecap="round" stroke-linejoin="round"/>
<rect x="48.9453" y="66.2344" width="13.16" height="2.07789" rx="1.03895" fill="#94C7FC"/>
<path d="M33.5435 78.3601L36.3749 81.5224L42.7101 75.8602" stroke="#94C7FC" stroke-width="1.61614" stroke-linecap="round" stroke-linejoin="round"/>
<rect x="48.9453" y="77.5703" width="15.007" height="2.07789" rx="1.03895" fill="#94C7FC"/>
<path d="M33.5435 89.7L36.3749 92.8622L42.7101 87.2" stroke="#94C7FC" stroke-width="1.61614" stroke-linecap="round" stroke-linejoin="round"/>
<rect x="48.7129" y="88.9102" width="15.007" height="2.07789" rx="1.03895" fill="#94C7FC"/>
<rect x="60.0439" y="64.3408" width="19.1628" height="46.4063" rx="2.88596" fill="white" stroke="black" stroke-width="1.15439"/>
<rect x="97.1398" y="66.4936" width="19.1628" height="46.4063" rx="2.88596" transform="rotate(-16.833 97.1398 66.4936)" fill="white" stroke="black" stroke-width="1.15439"/>
<rect x="79.4384" y="64.3408" width="19.1628" height="46.4063" rx="2.88596" fill="white" stroke="black" stroke-width="1.15439"/>
<path d="M75.3955 94.6992H63.8516V68.1484H75.3955V94.6992ZM65.6982 78.5381V80.7461H73.5479V78.5381H65.6982ZM65.6982 76.5898H73.5479V74.3818H65.6982V76.5898ZM65.6982 72.4336H73.5479V70.2256H65.6982V72.4336Z" fill="#62A8F8"/>
<circle cx="69.6237" cy="102.78" r="3.69403" fill="#62A8F8"/>
<path d="M94.792 94.6992H83.248V68.1484H94.792V94.6992ZM85.0947 78.5381V80.7461H92.9443V78.5381H85.0947ZM85.0947 76.5898H92.9443V74.3818H85.0947V76.5898ZM85.0947 72.4336H92.9443V70.2256H85.0947V72.4336Z" fill="#47CD89"/>
<circle cx="89.0202" cy="102.78" r="3.69403" fill="#47CD89"/>
<path d="M120.692 91.3251L109.642 94.6675L101.955 69.2539L113.005 65.9116L120.692 91.3251ZM106.731 78.6639L107.37 80.7773L114.884 78.5043L114.245 76.3909L106.731 78.6639ZM106.168 76.7988L113.681 74.5261L113.042 72.4126L105.528 74.6854L106.168 76.7988ZM104.963 72.8208L112.477 70.5481L111.837 68.4347L104.324 70.7074L104.963 72.8208Z" fill="#F670C7"/>
<circle cx="117.508" cy="100.732" r="3.69403" transform="rotate(-16.83 117.508 100.732)" fill="#F670C7"/>
</svg>
