<svg width="140" height="140" viewBox="0 0 140 140" fill="none" xmlns="http://www.w3.org/2000/svg">
<path d="M123.055 58.5159H85.0263C76.9147 58.5159 70.3393 65.0913 70.3393 73.2029C70.3393 81.3142 76.9147 87.8899 85.0263 87.8899H123.055C131.166 87.8899 137.742 81.3142 137.742 73.2029C137.742 65.0913 131.166 58.5159 123.055 58.5159ZM53.2109 87.8899H27.8812C19.7696 87.8899 13.1942 94.4654 13.1942 102.577C13.1942 110.688 19.7696 117.264 27.8812 117.264H53.2109C61.3221 117.264 67.8979 110.688 67.8979 102.577C67.8979 94.4654 61.3222 87.8899 53.2109 87.8899ZM53.2109 30.9531H16.9448C8.83318 30.9531 2.25781 37.5288 2.25781 45.6401C2.25781 53.7517 8.83318 60.3271 16.9448 60.3271H53.2109C61.3221 60.3271 67.8979 53.7517 67.8979 45.6401C67.8979 37.5288 61.3222 30.9531 53.2109 30.9531Z" fill="#DBEBFE"/>
<path d="M120.637 21.2732C123.458 21.2732 125.746 18.9857 125.746 16.1639C125.746 13.3422 123.458 11.0547 120.637 11.0547C117.815 11.0547 115.527 13.3422 115.527 16.1639C115.527 18.9857 117.815 21.2732 120.637 21.2732Z" fill="#75E0A7"/>
<path d="M127.815 101.848C130.232 101.848 132.19 99.8889 132.19 97.4727C132.19 95.0564 130.232 93.0977 127.815 93.0977C125.399 93.0977 123.44 95.0564 123.44 97.4727C123.44 99.8889 125.399 101.848 127.815 101.848Z" fill="#FCCEEE"/>
<path d="M14.2119 78.7578C16.0241 78.7578 17.4932 77.2887 17.4932 75.4766C17.4932 73.6644 16.0241 72.1953 14.2119 72.1953C12.3997 72.1953 10.9307 73.6644 10.9307 75.4766C10.9307 77.2887 12.3997 78.7578 14.2119 78.7578Z" fill="#3D86F4"/>
<path d="M39.5815 128.946C40.8319 128.946 41.8456 127.932 41.8456 126.682C41.8456 125.432 40.8319 124.418 39.5815 124.418C38.331 124.418 37.3174 125.432 37.3174 126.682C37.3174 127.932 38.331 128.946 39.5815 128.946Z" fill="#3D86F4"/>
<path d="M95.5078 127.285C97.32 127.285 98.789 125.816 98.789 124.004C98.789 122.192 97.32 120.723 95.5078 120.723C93.6956 120.723 92.2266 122.192 92.2266 124.004C92.2266 125.816 93.6956 127.285 95.5078 127.285Z" fill="#75E0A7"/>
<path d="M32.4975 22.5165C33.7479 22.5165 34.7616 21.5028 34.7616 20.2524C34.7616 19.0019 33.7479 17.9883 32.4975 17.9883C31.2471 17.9883 30.2334 19.0019 30.2334 20.2524C30.2334 21.5028 31.2471 22.5165 32.4975 22.5165Z" fill="#FDDDD6"/>
<path d="M100.192 16.543H39.5887C36.3737 16.543 33.7676 19.1493 33.7676 22.3643V98.2889C33.7676 101.504 36.3737 104.11 39.5887 104.11H100.192C103.407 104.11 106.013 101.504 106.013 98.2889V22.3643C106.013 19.1493 103.407 16.543 100.192 16.543Z" fill="#94C7FC"/>
<path d="M41.1299 93.2757V27.3777C41.1299 25.4604 42.6841 23.9062 44.6013 23.9062H95.1763C97.0935 23.9062 98.6477 25.4605 98.6477 27.3777V93.2757C98.6477 95.1929 97.0935 96.7471 95.1763 96.7471H44.6013C42.6841 96.7471 41.1299 95.1929 41.1299 93.2757Z" fill="white"/>
<path d="M85.9813 30.6719H53.4609V38.0355H85.9813V30.6719Z" fill="#94C7FC"/>
<path d="M90.0284 48.0678H49.7595C49.0811 48.0678 48.5322 47.5189 48.5322 46.8406C48.5322 46.1622 49.0811 45.6133 49.7595 45.6133H90.0284C90.7067 45.6133 91.2556 46.1622 91.2556 46.8406C91.2556 47.5189 90.7067 48.0678 90.0284 48.0678ZM90.0284 55.8917H49.7595C49.0811 55.8917 48.5322 55.3428 48.5322 54.6644C48.5322 53.9861 49.0811 53.4372 49.7595 53.4372H90.0284C90.7067 53.4372 91.2556 53.9861 91.2556 54.6644C91.2556 55.3428 90.7067 55.8917 90.0284 55.8917ZM90.0284 63.7156H49.7595C49.0811 63.7156 48.5322 63.1667 48.5322 62.4884C48.5322 61.81 49.0811 61.2611 49.7595 61.2611H90.0284C90.7067 61.2611 91.2556 61.81 91.2556 62.4884C91.2556 63.1667 90.7067 63.7156 90.0284 63.7156ZM90.0284 71.5395H49.7595C49.0811 71.5395 48.5322 70.9906 48.5322 70.3122C48.5322 69.6339 49.0811 69.085 49.7595 69.085H90.0284C90.7067 69.085 91.2556 69.6339 91.2556 70.3122C91.2556 70.9906 90.7067 71.5395 90.0284 71.5395Z" fill="#94C7FC"/>
<path d="M75.3887 99.957V122.136L84.6227 114.773L93.8543 122.136V99.957H75.3887Z" fill="white"/>
<path d="M84.6268 106.086C92.7632 106.086 99.359 99.4897 99.359 91.3533C99.359 83.217 92.7632 76.6211 84.6268 76.6211C76.4904 76.6211 69.8945 83.217 69.8945 91.3533C69.8945 99.4897 76.4904 106.086 84.6268 106.086Z" fill="#94C7FC"/>
<path d="M100.187 15.3125H39.5839C35.7055 15.3125 32.5391 18.479 32.5391 22.3571V98.2766C32.5391 102.155 35.7055 105.321 39.5839 105.321H74.1689V124.688L84.6247 116.342L95.0811 124.688V105.321H100.187C104.065 105.321 107.231 102.155 107.231 98.2766V22.3571C107.231 18.479 104.065 15.3125 100.187 15.3125ZM84.6247 104.855C77.1271 104.855 71.1246 98.7048 71.1246 91.3547C71.1246 83.8928 77.1627 77.8301 84.6247 77.8301C92.062 77.8301 98.1247 83.8928 98.1247 91.3547C98.1247 98.6082 92.1721 104.855 84.6247 104.855ZM92.6265 119.582L84.6247 113.2L76.6234 119.582V105.149C76.721 105.223 76.8193 105.272 76.9422 105.321C79.2247 106.597 81.8267 107.309 84.6246 107.309C87.3986 107.309 90.0252 106.597 92.3077 105.321C92.406 105.272 92.5289 105.223 92.6265 105.125L92.6265 119.582ZM104.776 98.2766C104.776 100.805 102.715 102.867 100.187 102.867H95.621C98.6892 99.9703 100.579 95.871 100.579 91.3548C100.579 82.5428 93.4122 75.3756 84.6247 75.3756C75.8132 75.3756 68.6701 82.5428 68.6701 91.3548C68.6701 95.8711 70.5601 99.9703 73.6037 102.867H39.5839C37.0557 102.867 34.9936 100.805 34.9936 98.2766V22.3571C34.9936 19.829 37.0557 17.7671 39.5839 17.7671H100.187C102.715 17.7671 104.776 19.829 104.776 22.3571V98.2766Z" fill="#1D2939"/>
<path d="M84.6206 83.2969L86.6211 89.4578H93.1011L87.8582 93.2648L89.8611 99.4282L84.6206 95.6187L79.3777 99.4282L81.3806 93.2648L76.1377 89.4578H82.6177L84.6206 83.2969Z" fill="white"/>
</svg>
