<svg width="140" height="140" viewBox="0 0 140 140" fill="none" xmlns="http://www.w3.org/2000/svg">
<path d="M123.055 58.5159H85.0263C76.9147 58.5159 70.3393 65.0913 70.3393 73.2029C70.3393 81.3142 76.9147 87.8899 85.0263 87.8899H123.055C131.166 87.8899 137.742 81.3142 137.742 73.2029C137.742 65.0913 131.166 58.5159 123.055 58.5159ZM53.2109 87.8899H27.8812C19.7696 87.8899 13.1942 94.4654 13.1942 102.577C13.1942 110.688 19.7696 117.264 27.8812 117.264H53.2109C61.3221 117.264 67.8979 110.688 67.8979 102.577C67.8979 94.4654 61.3222 87.8899 53.2109 87.8899ZM53.2109 30.9531H16.9448C8.83318 30.9531 2.25781 37.5288 2.25781 45.6401C2.25781 53.7517 8.83318 60.3271 16.9448 60.3271H53.2109C61.3221 60.3271 67.8979 53.7517 67.8979 45.6401C67.8979 37.5288 61.3222 30.9531 53.2109 30.9531Z" fill="#DBEBFE"/>
<path d="M118.762 21.2732C121.583 21.2732 123.871 18.9857 123.871 16.1639C123.871 13.3422 121.583 11.0547 118.762 11.0547C115.94 11.0547 113.652 13.3422 113.652 16.1639C113.652 18.9857 115.94 21.2732 118.762 21.2732Z" fill="#75E0A7"/>
<path d="M127.815 101.852C130.232 101.852 132.19 99.8928 132.19 97.4766C132.19 95.0603 130.232 93.1016 127.815 93.1016C125.399 93.1016 123.44 95.0603 123.44 97.4766C123.44 99.8928 125.399 101.852 127.815 101.852Z" fill="#FCCEEE"/>
<path d="M14.2119 78.7617C16.0241 78.7617 17.4932 77.2926 17.4932 75.4805C17.4932 73.6683 16.0241 72.1992 14.2119 72.1992C12.3997 72.1992 10.9307 73.6683 10.9307 75.4805C10.9307 77.2926 12.3997 78.7617 14.2119 78.7617Z" fill="#3D86F4"/>
<path d="M39.581 128.942C40.8314 128.942 41.8451 127.929 41.8451 126.678C41.8451 125.428 40.8314 124.414 39.581 124.414C38.3306 124.414 37.3169 125.428 37.3169 126.678C37.3169 127.929 38.3306 128.942 39.581 128.942Z" fill="#3D86F4"/>
<path d="M95.5078 127.289C97.32 127.289 98.789 125.82 98.789 124.008C98.789 122.196 97.32 120.727 95.5078 120.727C93.6956 120.727 92.2266 122.196 92.2266 124.008C92.2266 125.82 93.6956 127.289 95.5078 127.289Z" fill="#75E0A7"/>
<path d="M32.498 22.5125C33.7484 22.5125 34.7621 21.4989 34.7621 20.2485C34.7621 18.998 33.7484 17.9844 32.498 17.9844C31.2476 17.9844 30.2339 18.998 30.2339 20.2485C30.2339 21.4989 31.2476 22.5125 32.498 22.5125Z" fill="#FDDDD6"/>
<g clip-path="url(#clip0_1_68391)">
<path fill-rule="evenodd" clip-rule="evenodd" d="M27.3438 44.0234C24.3234 44.0234 21.875 46.4718 21.875 49.4922V102.539C21.875 105.559 24.3234 108.008 27.3438 108.008H62.9617C63.1014 108.008 63.2182 108.114 63.2376 108.252C63.7558 111.977 66.9531 114.844 70.8203 114.844C74.6875 114.844 77.8848 111.977 78.403 108.252C78.4224 108.114 78.5392 108.008 78.6789 108.008H114.297C117.317 108.008 119.766 105.559 119.766 102.539V49.4922C119.766 46.4718 117.317 44.0234 114.297 44.0234H27.3438Z" fill="#94C7FC"/>
<mask id="mask0_1_68391" style="mask-type:luminance" maskUnits="userSpaceOnUse" x="21" y="44" width="99" height="71">
<path fill-rule="evenodd" clip-rule="evenodd" d="M27.3438 44.0234C24.3234 44.0234 21.875 46.4718 21.875 49.4922V102.539C21.875 105.559 24.3234 108.008 27.3438 108.008H62.9617C63.1014 108.008 63.2182 108.114 63.2376 108.252C63.7558 111.977 66.9531 114.844 70.8203 114.844C74.6875 114.844 77.8848 111.977 78.403 108.252C78.4224 108.114 78.5392 108.008 78.6789 108.008H114.297C117.317 108.008 119.766 105.559 119.766 102.539V49.4922C119.766 46.4718 117.317 44.0234 114.297 44.0234H27.3438Z" fill="white"/>
</mask>
<g mask="url(#mask0_1_68391)">
<path d="M24.6094 49.4922C24.6094 47.982 25.8336 46.7578 27.3438 46.7578V41.2891C22.8133 41.2891 19.1406 44.9616 19.1406 49.4922H24.6094ZM24.6094 102.539V49.4922H19.1406V102.539H24.6094ZM27.3438 105.273C25.8336 105.273 24.6094 104.049 24.6094 102.539H19.1406C19.1406 107.07 22.8133 110.742 27.3438 110.742V105.273ZM62.9617 105.273H27.3438V110.742H62.9617V105.273ZM70.8203 112.109C68.3367 112.109 66.2785 110.267 65.9457 107.875L60.5292 108.629C61.2328 113.686 65.5698 117.578 70.8203 117.578V112.109ZM75.6949 107.875C75.3621 110.267 73.3039 112.109 70.8203 112.109V117.578C76.0709 117.578 80.4079 113.686 81.1114 108.629L75.6949 107.875ZM114.297 105.273H78.6789V110.742H114.297V105.273ZM117.031 102.539C117.031 104.049 115.807 105.273 114.297 105.273V110.742C118.827 110.742 122.5 107.07 122.5 102.539H117.031ZM117.031 49.4922V102.539H122.5V49.4922H117.031ZM114.297 46.7578C115.807 46.7578 117.031 47.982 117.031 49.4922H122.5C122.5 44.9616 118.827 41.2891 114.297 41.2891V46.7578ZM27.3438 46.7578H114.297V41.2891H27.3438V46.7578ZM81.1114 108.629C80.9509 109.784 79.9619 110.742 78.6789 110.742V105.273C77.1165 105.273 75.8939 106.444 75.6949 107.875L81.1114 108.629ZM62.9617 110.742C61.6787 110.742 60.6897 109.784 60.5292 108.629L65.9457 107.875C65.7467 106.444 64.5241 105.273 62.9617 105.273V110.742Z" fill="#1D2939"/>
</g>
<path d="M31.4453 37.5977H30.8984V38.1445V100.762V101.309H31.4453H70H70.5469V100.762V43.6133C70.5469 40.291 67.8535 37.5977 64.5312 37.5977H31.4453Z" fill="white" stroke="#1D2939" stroke-width="1.09375"/>
<path d="M110.469 38.1445V37.5977H109.922H76.8359C73.5137 37.5977 70.8203 40.291 70.8203 43.6133V100.762V101.309H71.3672H109.922H110.469V100.762V38.1445Z" fill="white" stroke="#1D2939" stroke-width="1.09375"/>
<path d="M62.7539 88.7305H39.2383C38.7852 88.7305 38.418 89.0977 38.418 89.5508C38.418 90.0038 38.7852 90.3711 39.2383 90.3711H62.7539C63.207 90.3711 63.5742 90.0038 63.5742 89.5508C63.5742 89.0977 63.207 88.7305 62.7539 88.7305Z" fill="#94C7FC"/>
<path d="M102.676 88.7305H79.1602C78.7071 88.7305 78.3398 89.0977 78.3398 89.5508C78.3398 90.0038 78.7071 90.3711 79.1602 90.3711H102.676C103.129 90.3711 103.496 90.0038 103.496 89.5508C103.496 89.0977 103.129 88.7305 102.676 88.7305Z" fill="#94C7FC"/>
<path d="M102.676 78.0664H79.1602C78.7071 78.0664 78.3398 78.4337 78.3398 78.8867C78.3398 79.3398 78.7071 79.707 79.1602 79.707H102.676C103.129 79.707 103.496 79.3398 103.496 78.8867C103.496 78.4337 103.129 78.0664 102.676 78.0664Z" fill="#94C7FC"/>
<path d="M62.7539 78.0664H39.2383C38.7852 78.0664 38.418 78.4337 38.418 78.8867C38.418 79.3398 38.7852 79.707 39.2383 79.707H62.7539C63.207 79.707 63.5742 79.3398 63.5742 78.8867C63.5742 78.4337 63.207 78.0664 62.7539 78.0664Z" fill="#94C7FC"/>
<path d="M62.7539 67.1289H39.2383C38.7852 67.1289 38.418 67.4962 38.418 67.9492C38.418 68.4023 38.7852 68.7695 39.2383 68.7695H62.7539C63.207 68.7695 63.5742 68.4023 63.5742 67.9492C63.5742 67.4962 63.207 67.1289 62.7539 67.1289Z" fill="#94C7FC"/>
<path d="M62.7539 56.4648H39.2383C38.7852 56.4648 38.418 56.8321 38.418 57.2852C38.418 57.7382 38.7852 58.1055 39.2383 58.1055H62.7539C63.207 58.1055 63.5742 57.7382 63.5742 57.2852C63.5742 56.8321 63.207 56.4648 62.7539 56.4648Z" fill="#94C7FC"/>
<path d="M62.7539 45.5273H39.2383C38.7852 45.5273 38.418 45.8946 38.418 46.3477C38.418 46.8007 38.7852 47.168 39.2383 47.168H62.7539C63.207 47.168 63.5742 46.8007 63.5742 46.3477C63.5742 45.8946 63.207 45.5273 62.7539 45.5273Z" fill="#94C7FC"/>
<path d="M98.5596 52.6914V56.3008C98.5596 57.7369 97.9892 59.1139 96.9739 60.1292C95.9584 61.1445 94.5813 61.7148 93.1455 61.7148H87.7314C86.2956 61.7148 84.9183 61.1445 83.903 60.1292C82.8878 59.1139 82.3174 57.7369 82.3174 56.3008V52.6914H98.5596Z" fill="#ABEFC6"/>
<path d="M95.609 52.6914C95.0944 54.9951 93.81 57.0549 91.9682 58.5309C90.126 60.0072 87.8362 60.812 85.4757 60.8125C85.214 60.8125 84.9523 60.8125 84.6996 60.8125C83.9624 60.3143 83.3592 59.6419 82.9439 58.855C82.5283 58.068 82.3131 57.1908 82.3174 56.3008V52.6914H95.609Z" fill="#75E0A7"/>
<path d="M107.584 34.6445C107.586 35.4208 107.529 36.1961 107.413 36.9636C107.036 39.5643 106.033 42.0345 104.491 44.1627C102.95 46.2906 100.915 48.0127 98.5608 49.1814V52.6915H82.3186V48.1798C79.5902 46.3529 77.4798 43.7422 76.2652 40.6917C75.0509 37.6412 74.7892 34.2943 75.5155 31.0923C76.2414 27.8902 77.9209 24.9833 80.3321 22.755C82.7435 20.5266 85.7737 19.0814 89.023 18.6099C89.7894 18.4814 90.5646 18.412 91.342 18.4023C95.6498 18.4023 99.7809 20.1136 102.827 23.1596C105.873 26.2056 107.584 30.3368 107.584 34.6445Z" fill="white"/>
<path d="M107.581 34.6446C107.583 35.4209 107.526 36.1961 107.41 36.9636C104.876 37.5469 102.235 37.4763 99.7358 36.7588C97.2365 36.0413 94.9604 34.7002 93.1219 32.8616C91.2833 31.0229 89.9421 28.7471 89.2246 26.2478C88.5071 23.7485 88.4365 21.1079 89.0197 18.5739C89.7873 18.4575 90.5628 18.4001 91.3388 18.4024C95.6465 18.4024 99.7779 20.1136 102.824 23.1596C105.87 26.2056 107.581 30.3369 107.581 34.6446Z" fill="#E6E6E6"/>
<path d="M116.605 22.0117C116.605 24.5103 115.864 26.9527 114.476 29.0301C113.088 31.1076 111.115 32.7268 108.807 33.6829C106.499 34.6391 103.959 34.8892 101.508 34.4018C99.0576 33.9144 96.8067 32.7112 95.04 30.9445C93.273 29.1777 92.0699 26.9268 91.5826 24.4763C91.0951 22.0257 91.3453 19.4857 92.3015 17.1774C93.2577 14.869 94.8767 12.896 96.9543 11.5079C99.0316 10.1198 101.474 9.37891 103.973 9.37891C104.516 9.37842 105.058 9.4146 105.597 9.48719C108.64 9.88172 111.435 11.3704 113.461 13.6751C115.487 15.9799 116.605 18.9432 116.605 22.0117Z" fill="#FFA88A"/>
<path d="M110.291 19.3047C110.291 22.6551 108.96 25.8683 106.591 28.2374C104.222 30.6065 101.009 31.9375 97.6583 31.9375C97.1153 31.938 96.5725 31.9018 96.0341 31.8292C94.0055 30.1864 92.5355 27.9554 91.8265 25.443C91.1174 22.9307 91.2041 20.2603 92.0745 17.7993C92.9451 15.3382 94.5565 13.2072 96.6876 11.6994C98.8185 10.1915 101.364 9.38088 103.975 9.37891C104.518 9.37842 105.061 9.4146 105.599 9.48719C107.063 10.6706 108.244 12.1663 109.056 13.8648C109.868 15.5635 110.29 17.4221 110.291 19.3047Z" fill="#FD9467"/>
<path d="M103.975 8.47656C101.178 8.47883 98.4502 9.34762 96.1669 10.9635C93.8837 12.5793 92.1573 14.8628 91.2251 17.5C87.5991 17.5252 84.0742 18.6995 81.1577 20.854C78.2409 23.0085 76.0824 26.0322 74.9925 29.4907C73.9026 32.9491 73.9373 36.6641 75.0915 40.1015C76.2457 43.5392 78.4602 46.5221 81.4166 48.6218V56.3008C81.4166 57.9759 82.0819 59.5826 83.2664 60.7671C84.451 61.9516 86.0577 62.6172 87.733 62.6172H93.1471C94.8222 62.6172 96.4289 61.9516 97.6134 60.7671C98.798 59.5826 99.4635 57.9759 99.4635 56.3008V49.7317C102.178 48.2828 104.45 46.1262 106.039 43.4908C107.627 40.8551 108.473 37.8391 108.487 34.7618C111.489 33.6921 114.018 31.597 115.627 28.8457C117.237 26.0944 117.824 22.8634 117.285 19.7219C116.745 16.5804 115.115 13.73 112.68 11.6729C110.245 9.61571 107.162 8.48381 103.975 8.47656ZM93.1471 60.8125H87.733C86.5362 60.8125 85.3889 60.3373 84.5426 59.491C83.6966 58.645 83.2213 57.4973 83.2213 56.3008V53.5938H97.6588V56.3008C97.6588 57.4973 97.1833 58.645 96.3373 59.491C95.491 60.3373 94.3437 60.8125 93.1471 60.8125ZM98.1551 48.3692C98.0047 48.4449 97.8787 48.5609 97.7912 48.7044C97.7034 48.848 97.6575 49.0131 97.6588 49.1813V51.7891H91.3424V39.9323H91.4687C92.003 39.9325 92.5324 39.8275 93.0262 39.623C93.5203 39.4187 93.9691 39.1191 94.3472 38.7412C94.4312 38.657 94.4979 38.5571 94.5436 38.4472C94.5889 38.3373 94.6125 38.2195 94.6125 38.1005C94.6125 37.9816 94.5889 37.8637 94.5436 37.7538C94.4979 37.6439 94.4312 37.5441 94.3472 37.4598C94.263 37.3756 94.1632 37.3089 94.0533 37.2635C93.9434 37.2179 93.8255 37.1943 93.7066 37.1943C93.5873 37.1943 93.4698 37.2179 93.3598 37.2635C93.2496 37.3089 93.1498 37.3756 93.0659 37.4598C92.8553 37.6701 92.6057 37.8369 92.3309 37.9509C92.0561 38.0647 91.7616 38.1232 91.4641 38.1232C91.1666 38.1232 90.8721 38.0647 90.5973 37.9509C90.3225 37.8369 90.0729 37.6701 89.8626 37.4598C89.652 37.2496 89.4852 36.9999 89.3715 36.7251C89.2577 36.4503 89.1989 36.1555 89.1989 35.8583C89.1989 35.5607 89.2577 35.2662 89.3715 34.9914C89.4852 34.7166 89.652 34.4669 89.8626 34.2565C90.0324 34.0866 90.1278 33.8562 90.1278 33.6159C90.1278 33.3756 90.0324 33.1451 89.8626 32.9752C89.6925 32.8053 89.462 32.7098 89.2219 32.7098C88.9816 32.7098 88.7511 32.8053 88.5812 32.9752C87.8192 33.7412 87.3912 34.7777 87.3912 35.8583C87.3912 36.9387 87.8192 37.9753 88.5812 38.7412C88.8681 39.0113 89.1896 39.2421 89.5377 39.427V51.7891H83.2213V48.1797C83.2213 48.0318 83.1852 47.8863 83.1161 47.7556C83.0469 47.6252 82.9465 47.5136 82.8243 47.4307C80.1143 45.6395 78.0427 43.0341 76.9085 39.99C75.7743 36.9458 75.6356 33.6202 76.5128 30.4923C77.3897 27.3644 79.2371 24.5957 81.7888 22.5851C84.3402 20.5745 87.4643 19.4259 90.7108 19.3047C90.5262 20.1951 90.4354 21.1024 90.4401 22.0117C90.4401 25.6015 91.8661 29.0442 94.4044 31.5825C95.6611 32.8394 97.1532 33.8364 98.7955 34.5166C100.437 35.1968 102.198 35.5469 103.975 35.5469C104.884 35.5497 105.791 35.459 106.682 35.2762C106.574 38.0248 105.724 40.6927 104.223 42.9978C102.722 45.3029 100.625 47.1587 98.1551 48.3692ZM103.975 33.7422C101.655 33.7422 99.387 33.0542 97.4581 31.7652C95.529 30.4763 94.0254 28.6442 93.1375 26.5008C92.2497 24.3573 92.0175 21.9987 92.4701 19.7232C92.9226 17.4477 94.0399 15.3576 95.6805 13.717C97.3209 12.0765 99.411 10.9593 101.687 10.5066C103.962 10.054 106.321 10.2863 108.464 11.1742C110.608 12.062 112.44 13.5656 113.729 15.4946C115.017 17.4237 115.706 19.6917 115.706 22.0117C115.706 23.5522 115.402 25.0776 114.813 26.5008C114.223 27.924 113.359 29.2171 112.27 30.3064C111.181 31.3957 109.888 32.2597 108.464 32.8493C107.041 33.4388 105.516 33.7422 103.975 33.7422Z" fill="#1D2939"/>
<path d="M112.538 18.5154L104.417 14.0037C104.28 13.9245 104.124 13.8828 103.966 13.8828C103.807 13.8828 103.652 13.9245 103.515 14.0037L95.3935 18.5154C95.2546 18.5941 95.1392 18.7083 95.0588 18.8462C94.9784 18.9841 94.936 19.1409 94.936 19.3005C94.936 19.4601 94.9784 19.6169 95.0588 19.7548C95.1392 19.8927 95.2546 20.0068 95.3935 20.0855L97.6584 21.3398V26.5192C97.6589 26.6859 97.7057 26.8491 97.7932 26.9908C97.8807 27.1326 98.0059 27.2473 98.1547 27.3223L103.569 30.0294C103.695 30.0928 103.834 30.1259 103.975 30.1259C104.116 30.1259 104.255 30.0928 104.381 30.0294L109.795 27.3223C109.944 27.2473 110.069 27.1326 110.156 26.9908C110.244 26.8491 110.291 26.6859 110.291 26.5192V21.3398L112.538 20.0855C112.677 20.0068 112.793 19.8927 112.873 19.7548C112.953 19.6169 112.995 19.4601 112.995 19.3005C112.995 19.1409 112.953 18.9841 112.873 18.8462C112.793 18.7083 112.677 18.5941 112.538 18.5154ZM108.487 25.9598L103.975 28.2156L99.4631 25.9598V22.3504L103.533 24.6063C103.67 24.6855 103.825 24.7272 103.984 24.7272C104.142 24.7272 104.298 24.6855 104.435 24.6063L108.487 22.3414V25.9598Z" fill="white"/>
</g>
<defs>
<clipPath id="clip0_1_68391">
<rect width="97.8906" height="106.367" fill="white" transform="translate(21.875 8.47656)"/>
</clipPath>
</defs>
</svg>
