<svg width="147" height="84" viewBox="0 0 147 84" fill="none" xmlns="http://www.w3.org/2000/svg">
<g filter="url(#filter0_d_61_2)">
<g clip-path="url(#clip0_61_2)">
<rect x="40.707" y="12.9321" width="56.9148" height="20.7502" rx="5.92863" transform="rotate(-6.99589 40.707 12.9321)" fill="#FFC942"/>
<g filter="url(#filter1_f_61_2)">
<path d="M50.4185 26.8848C49.5209 26.9949 48.7204 26.896 48.0168 26.5882C47.3208 26.2706 46.7529 25.784 46.3133 25.1283C45.8812 24.463 45.6085 23.6686 45.4952 22.7451C45.3819 21.8216 45.4544 20.9848 45.7128 20.2348C45.9798 19.4836 46.4126 18.8699 47.0112 18.3934C47.6184 17.9159 48.3708 17.6221 49.2684 17.512C50.3645 17.3775 51.2954 17.5392 52.0612 17.9971C52.827 18.4551 53.3571 19.1697 53.6515 20.141L51.7355 20.3761C51.564 19.9066 51.2849 19.5598 50.8982 19.3356C50.5105 19.1029 50.0275 19.022 49.4492 19.0929C48.9141 19.1586 48.4726 19.3442 48.1246 19.6497C47.7756 19.9466 47.5261 20.3408 47.3762 20.8322C47.2338 21.314 47.2023 21.8786 47.2818 22.5259C47.3601 23.1645 47.5272 23.7047 47.7829 24.1464C48.0472 24.587 48.3846 24.9092 48.795 25.1129C49.2055 25.3166 49.6783 25.3856 50.2134 25.3199C50.7916 25.2489 51.2423 25.0666 51.5654 24.7729C51.8875 24.4706 52.0766 24.0838 52.1327 23.6126L54.0487 23.3775C53.9915 24.3394 53.6462 25.1308 53.0128 25.7517C52.3794 26.3726 51.5146 26.7503 50.4185 26.8848ZM55.9054 26.0538L54.7934 16.9917L58.1723 16.577C58.9145 16.486 59.5383 16.5364 60.0437 16.7285C60.5577 16.9195 60.9577 17.2164 61.2437 17.6193C61.5372 18.0126 61.7174 18.4811 61.7841 19.0248C61.8455 19.5254 61.7862 20.0057 61.6061 20.4658C61.4336 20.9163 61.1221 21.3049 60.6717 21.6318C60.2288 21.9489 59.6276 22.1541 58.8681 22.2473L57.2369 22.4475L57.6531 25.8393L55.9054 26.0538ZM57.0637 21.0364L58.5913 20.8489C59.161 20.779 59.5507 20.5998 59.7606 20.3112C59.9791 20.0216 60.0624 19.6653 60.0105 19.2424C59.9554 18.7936 59.7874 18.4595 59.5064 18.2399C59.234 18.0193 58.8131 17.9439 58.2434 18.0138L56.7158 18.2012L57.0637 21.0364ZM65.98 24.8175L65.0412 17.1665L62.4002 17.4906L62.227 16.0795L69.2567 15.2168L69.4298 16.628L66.7759 16.9536L67.7148 24.6046L65.98 24.8175ZM75.8705 23.6038L75.0047 16.5483L73.3934 17.2323L73.2187 15.8082L75.4964 14.4512L76.5579 14.3209L77.6699 23.383L75.8705 23.6038ZM83.1275 22.871C82.3076 22.9716 81.5798 22.8594 80.9442 22.5344C80.3086 22.2094 79.7883 21.717 79.3832 21.0571C78.9856 20.3875 78.7302 19.591 78.6169 18.6675C78.5036 17.7441 78.5593 16.9137 78.7843 16.1765C79.0168 15.4296 79.4021 14.8217 79.9402 14.3526C80.4784 13.8836 81.1574 13.5988 81.9773 13.4982C82.7972 13.3976 83.5207 13.5103 84.1476 13.8363C84.7832 14.1613 85.2998 14.6586 85.6974 15.3282C86.1025 15.9881 86.3617 16.7798 86.475 17.7032C86.5883 18.6267 86.5288 19.4619 86.2963 20.2088C86.0714 20.946 85.6898 21.5491 85.1517 22.0181C84.6221 22.4861 83.9474 22.7704 83.1275 22.871ZM82.9353 21.3045C83.3582 21.2527 83.7139 21.082 84.0025 20.7925C84.2987 20.4933 84.5045 20.1001 84.62 19.6129C84.744 19.1246 84.7669 18.5611 84.6885 17.9225C84.6091 17.2752 84.4507 16.7339 84.2133 16.2988C83.9835 15.8539 83.6892 15.5264 83.3306 15.3164C82.9805 15.1053 82.5941 15.0257 82.1712 15.0776C81.7483 15.1295 81.3882 15.3007 81.0909 15.5912C80.7937 15.8818 80.583 16.2712 80.459 16.7595C80.3425 17.2381 80.324 17.801 80.4034 18.4483C80.4818 19.087 80.6359 19.6287 80.8657 20.0736C81.1041 20.5174 81.4032 20.8487 81.7629 21.0673C82.1216 21.2774 82.5124 21.3564 82.9353 21.3045ZM92.6783 21.5413L92.4765 19.8972L88.0231 20.4437L87.8531 19.0585L91.3332 12.5078L93.3139 12.2647L94.0383 18.1681L95.2164 18.0235L95.4023 19.5382L94.2242 19.6827L94.426 21.3269L92.6783 21.5413ZM89.7015 18.7002L92.4072 18.3682L91.9195 14.3938L89.7015 18.7002Z" fill="white"/>
</g>
</g>
</g>
<g filter="url(#filter2_d_61_2)">
<g clip-path="url(#clip1_61_2)">
<rect x="82.6191" y="25.7305" width="56.9148" height="20.7502" rx="5.92863" transform="rotate(14 82.6191 25.7305)" fill="#FC6B35"/>
<g filter="url(#filter3_f_61_2)">
<path d="M86.6866 42.2364C85.8092 42.0176 85.0972 41.6385 84.5506 41.0989C84.0146 40.553 83.6588 39.8953 83.4833 39.1256C83.3183 38.3497 83.3484 37.5103 83.5734 36.6075C83.7985 35.7048 84.166 34.9495 84.676 34.3418C85.1944 33.7363 85.8184 33.3183 86.548 33.088C87.2859 32.8597 88.0937 32.855 88.9711 33.0738C90.0426 33.3409 90.8538 33.8255 91.4047 34.5274C91.9555 35.2293 92.1944 36.0864 92.1212 37.0988L90.2482 36.6318C90.2563 36.132 90.12 35.7081 89.8393 35.3603C89.5607 35.0041 89.1388 34.7555 88.5735 34.6146C88.0504 34.4842 87.5717 34.4992 87.1373 34.6598C86.7051 34.8119 86.331 35.0905 86.0149 35.4956C85.7093 35.8944 85.4777 36.4102 85.3199 37.043C85.1642 37.6673 85.1266 38.2315 85.2071 38.7355C85.296 39.2415 85.4955 39.6632 85.8058 40.0004C86.116 40.3377 86.5327 40.5715 87.0558 40.7019C87.621 40.8429 88.1071 40.8341 88.5141 40.6757C88.9231 40.5088 89.2382 40.2155 89.4594 39.7957L91.3324 40.2627C90.9343 41.1402 90.3284 41.7554 89.5146 42.1081C88.7008 42.4608 87.7581 42.5035 86.6866 42.2364ZM92.1069 43.4265L94.3157 34.5676L97.6188 35.3912C98.3444 35.5721 98.9087 35.8427 99.3117 36.2031C99.7232 36.5656 99.9902 36.9861 100.113 37.4648C100.246 37.9371 100.246 38.439 100.114 38.9706C99.9918 39.4599 99.7643 39.8871 99.4313 40.2522C99.1089 40.6109 98.6788 40.8621 98.1411 41.0059C97.614 41.1433 96.9792 41.1194 96.2367 40.9343L94.6421 40.5367L93.8154 43.8525L92.1069 43.4265ZM94.9861 39.1573L96.4794 39.5296C97.0363 39.6685 97.4644 39.6408 97.7637 39.4466C98.0715 39.2545 98.2769 38.9517 98.38 38.5383C98.4894 38.0996 98.4523 37.7274 98.2686 37.4217C98.0933 37.1181 97.7273 36.8969 97.1705 36.7581L95.6771 36.3857L94.9861 39.1573ZM101.956 45.8821L103.82 38.4026L101.239 37.7589L101.583 36.3795L108.455 38.0929L108.111 39.4723L105.516 38.8255L103.651 46.3049L101.956 45.8821ZM111.624 48.2927L113.344 41.3955L111.595 41.4567L111.942 40.0646L114.554 39.6137L115.592 39.8724L113.383 48.7313L111.624 48.2927ZM118.662 50.2088C117.861 50.0089 117.221 49.6434 116.744 49.1123C116.267 48.5811 115.958 47.9349 115.816 47.1737C115.685 46.4061 115.732 45.571 115.957 44.6682C116.182 43.7654 116.532 43.0102 117.006 42.4026C117.49 41.7886 118.068 41.359 118.739 41.114C119.409 40.8689 120.145 40.8463 120.947 41.0461C121.748 41.246 122.383 41.6104 122.852 42.1395C123.329 42.6706 123.633 43.32 123.764 44.0875C123.906 44.8488 123.864 45.6808 123.639 46.5835C123.414 47.4863 123.059 48.2447 122.574 48.8587C122.1 49.4663 121.528 49.8927 120.857 50.1378C120.195 50.3849 119.464 50.4086 118.662 50.2088ZM119.044 48.6774C119.457 48.7805 119.851 48.7486 120.224 48.5818C120.607 48.4086 120.94 48.1153 121.223 47.7017C121.514 47.2903 121.737 46.7724 121.892 46.1481C122.05 45.5153 122.096 44.9533 122.031 44.4619C121.975 43.9642 121.818 43.5531 121.558 43.2285C121.307 42.906 120.975 42.6932 120.562 42.5901C120.148 42.487 119.751 42.5179 119.369 42.6826C118.987 42.8473 118.651 43.1354 118.36 43.5469C118.08 43.9519 117.861 44.4709 117.703 45.1037C117.548 45.728 117.498 46.289 117.553 46.7867C117.616 47.2864 117.777 47.7029 118.034 48.0359C118.294 48.3605 118.63 48.5744 119.044 48.6774ZM128.055 52.3894L128.456 50.7822L124.102 49.6967L124.44 48.3426L130.036 43.4737L131.972 43.9565L130.534 49.7274L131.685 50.0146L131.316 51.4953L130.164 51.2081L129.764 52.8154L128.055 52.3894ZM126.294 48.6704L128.939 49.3299L129.908 45.4446L126.294 48.6704Z" fill="white"/>
</g>
</g>
</g>
<g filter="url(#filter4_d_61_2)">
<g clip-path="url(#clip2_61_2)">
<rect x="43.8652" y="53.8281" width="56.9148" height="20.7502" rx="5.92863" transform="rotate(-7 43.8652 53.8281)" fill="#FFADAC"/>
<g filter="url(#filter5_f_61_2)">
<path d="M53.5777 67.7801C52.6802 67.8903 51.8796 67.7915 51.176 67.4836C50.4799 67.1661 49.9121 66.6795 49.4724 66.0239C49.0403 65.3586 48.7675 64.5642 48.6541 63.6407C48.5407 62.7173 48.6132 61.8805 48.8715 61.1304C49.1385 60.3793 49.5712 59.7655 50.1698 59.289C50.777 58.8114 51.5293 58.5176 52.4269 58.4073C53.523 58.2728 54.4539 58.4344 55.2198 58.8923C55.9856 59.3502 56.5158 60.0648 56.8102 61.0361L54.8943 61.2714C54.7227 60.8018 54.4436 60.455 54.0569 60.2309C53.6691 59.9982 53.1861 59.9173 52.6079 59.9883C52.0728 60.054 51.6313 60.2396 51.2833 60.5452C50.9343 60.8421 50.6849 61.2363 50.5349 61.7278C50.3926 62.2096 50.3612 62.7741 50.4407 63.4214C50.5191 64.06 50.6861 64.6002 50.9419 65.0419C51.2062 65.4825 51.5436 65.8046 51.9541 66.0083C52.3646 66.212 52.8374 66.2809 53.3725 66.2152C53.9507 66.1442 54.4014 65.9619 54.7245 65.6681C55.0466 65.3658 55.2356 64.979 55.2916 64.5078L57.2076 64.2725C57.1505 65.2345 56.8053 66.0259 56.1719 66.6468C55.5385 67.2677 54.6738 67.6455 53.5777 67.7801ZM59.0646 66.9487L57.9519 57.8867L61.3307 57.4718C62.0729 57.3807 62.6968 57.4311 63.2022 57.6231C63.7162 57.814 64.1162 58.111 64.4022 58.5139C64.6958 58.9071 64.876 59.3756 64.9427 59.9193C65.0042 60.4199 64.9449 60.9002 64.7649 61.3604C64.5924 61.8108 64.281 62.1995 63.8305 62.5264C63.3876 62.8436 62.7864 63.0488 62.0269 63.142L60.3958 63.3423L60.8122 66.7341L59.0646 66.9487ZM60.2225 61.9312L61.7501 61.7437C62.3197 61.6737 62.7095 61.4945 62.9193 61.2059C63.1378 60.9162 63.2211 60.56 63.1692 60.1371C63.1141 59.6883 62.946 59.3541 62.665 59.1345C62.3926 58.9139 61.9716 58.8386 61.402 58.9085L59.8744 59.0961L60.2225 61.9312ZM69.1391 65.7117L68.1997 58.0607L65.5587 58.385L65.3855 56.9739L72.415 56.1108L72.5883 57.5219L69.9344 57.8478L70.8738 65.4987L69.1391 65.7117ZM79.0294 64.4973L78.1631 57.4419L76.552 58.1259L76.3771 56.7019L78.6547 55.3447L79.7162 55.2143L80.8289 64.2764L79.0294 64.4973ZM86.2864 63.764C85.4665 63.8646 84.7388 63.7525 84.1031 63.4275C83.4675 63.1026 82.9471 62.6102 82.542 61.9503C82.1444 61.2808 81.8889 60.4843 81.7755 59.5608C81.6621 58.6373 81.7178 57.807 81.9427 57.0698C82.1751 56.3229 82.5604 55.7149 83.0985 55.2458C83.6367 54.7768 84.3157 54.4919 85.1356 54.3912C85.9555 54.2906 86.6789 54.4032 87.3059 54.7292C87.9415 55.0542 88.4581 55.5514 88.8557 56.221C89.2609 56.8808 89.5202 57.6725 89.6336 58.596C89.747 59.5194 89.6874 60.3546 89.455 61.1015C89.2301 61.8387 88.8486 62.4419 88.3105 62.9109C87.781 63.379 87.1063 63.6633 86.2864 63.764ZM86.0941 62.1975C86.517 62.1456 86.8727 61.9749 87.1613 61.6854C87.4575 61.3862 87.6633 60.993 87.7787 60.5058C87.9027 60.0175 87.9255 59.454 87.8471 58.8153C87.7676 58.168 87.6091 57.6268 87.3717 57.1916C87.1419 56.7468 86.8476 56.4194 86.4889 56.2093C86.1389 55.9983 85.7524 55.9187 85.3295 55.9706C84.9066 56.0225 84.5466 56.1938 84.2493 56.4843C83.9521 56.7749 83.7415 57.1643 83.6175 57.6526C83.501 58.1312 83.4825 58.6942 83.562 59.3415C83.6404 59.9801 83.7945 60.5219 84.0244 60.9667C84.2628 61.4105 84.562 61.7417 84.9217 61.9604C85.2804 62.1704 85.6712 62.2494 86.0941 62.1975ZM95.8371 62.4336L95.6352 60.7895L91.1819 61.3363L91.0118 59.9511L94.4914 53.4002L96.4721 53.157L97.1969 59.0602L98.375 58.9156L98.561 60.4302L97.3829 60.5749L97.5848 62.219L95.8371 62.4336ZM92.8601 59.5927L95.5658 59.2605L95.0778 55.2862L92.8601 59.5927Z" fill="white"/>
</g>
</g>
</g>
<g filter="url(#filter6_d_61_2)">
<g clip-path="url(#clip3_61_2)">
<rect x="5" y="45.7617" width="56.9148" height="20.1573" rx="5.92863" transform="rotate(-21 5 45.7617)" fill="#43C6F9"/>
<g filter="url(#filter7_f_61_2)">
<path d="M17.693 56.6728C16.8488 56.9969 16.0481 57.0947 15.2909 56.9662C14.5387 56.8265 13.87 56.4918 13.2848 55.962C12.7046 55.421 12.2477 54.7162 11.9143 53.8476C11.5809 52.979 11.4488 52.1495 11.518 51.3592C11.5953 50.5658 11.8667 49.8655 12.3321 49.2584C12.8058 48.6482 13.4647 48.181 14.3089 47.8569C15.3399 47.4612 16.2823 47.3928 17.1362 47.6518C17.99 47.9108 18.6773 48.476 19.198 49.3472L17.3959 50.039C17.1158 49.6249 16.7611 49.3559 16.3317 49.232C15.8991 49.1 15.4109 49.1384 14.867 49.3472C14.3637 49.5404 13.9802 49.8273 13.7165 50.2079C13.4497 50.5804 13.303 51.0233 13.2765 51.5364C13.2549 52.0383 13.361 52.5937 13.5947 53.2025C13.8253 53.8033 14.1181 54.287 14.473 54.6537C14.8361 55.0172 15.2415 55.2482 15.689 55.3465C16.1366 55.4448 16.612 55.3973 17.1153 55.2041C17.6592 54.9953 18.0524 54.7094 18.2948 54.3462C18.5342 53.9749 18.624 53.5539 18.5644 53.0831L20.3666 52.3913C20.5439 53.3385 20.4003 54.1899 19.936 54.9456C19.4717 55.7014 18.724 56.2771 17.693 56.6728ZM22.8158 54.5388L19.5438 46.0151L22.7219 44.7951C23.4201 44.5271 24.0376 44.4252 24.5744 44.4892C25.1194 44.5501 25.5793 44.7414 25.9543 45.0632C26.3343 45.3737 26.6225 45.7847 26.8188 46.2961C26.9995 46.7669 27.0582 47.2474 26.9948 47.7374C26.9364 48.2162 26.7283 48.6686 26.3703 49.0948C26.0173 49.5097 25.4836 49.8543 24.7692 50.1285L23.235 50.7175L24.4596 53.9077L22.8158 54.5388ZM22.7255 49.3902L24.1623 48.8386C24.6981 48.633 25.0329 48.3648 25.1667 48.034C25.3086 47.7001 25.3033 47.3342 25.1506 46.9365C24.9885 46.5143 24.7446 46.2308 24.4188 46.0857C24.1012 45.9375 23.6745 45.9663 23.1387 46.172L21.7018 46.7235L22.7255 49.3902ZM32.2918 50.9013L29.5293 43.7048L27.0453 44.6584L26.5358 43.3311L33.1477 40.793L33.6572 42.1203L31.161 43.0785L33.9234 50.2749L32.2918 50.9013ZM41.5946 47.3303L39.0471 40.694L37.6493 41.7475L37.1351 40.408L39.0167 38.5402L40.0152 38.1569L43.2871 46.6805L41.5946 47.3303ZM48.4586 44.8631C47.6874 45.1591 46.9541 45.2264 46.2587 45.0648C45.5634 44.9033 44.9393 44.5514 44.3866 44.0092C43.8388 43.4557 43.3982 42.7447 43.0648 41.8761C42.7314 41.0075 42.5846 40.1883 42.6244 39.4186C42.6692 38.6376 42.896 37.9545 43.3047 37.3692C43.7133 36.7839 44.3033 36.3432 45.0744 36.0472C45.8456 35.7511 46.5748 35.6854 47.2621 35.8501C47.9574 36.0116 48.579 36.3691 49.1267 36.9226C49.6795 37.4648 50.1226 38.1702 50.456 39.0388C50.7895 39.9074 50.9337 40.7322 50.8889 41.5132C50.8491 42.2829 50.6248 42.9604 50.2162 43.5457C49.8156 44.1279 49.2297 44.567 48.4586 44.8631ZM47.893 43.3897C48.2907 43.237 48.5946 42.9853 48.8046 42.6346C49.0196 42.2726 49.1241 41.8413 49.1182 41.3406C49.1204 40.8368 49.0062 40.2846 48.7756 39.6839C48.5419 39.075 48.2573 38.5882 47.9216 38.2234C47.591 37.8474 47.2263 37.6009 46.8274 37.4838C46.4367 37.3637 46.0425 37.38 45.6447 37.5327C45.2469 37.6854 44.939 37.9387 44.7209 38.2925C44.5028 38.6463 44.3926 39.0751 44.3904 39.5789C44.3932 40.0715 44.5115 40.6222 44.7452 41.231C44.9758 41.8317 45.2564 42.3201 45.587 42.6962C45.9257 43.0691 46.2961 43.3181 46.6981 43.4432C47.0969 43.5602 47.4952 43.5424 47.893 43.3897ZM57.4037 41.2617L56.8101 39.7153L52.6213 41.3232L52.1212 40.0203L53.9126 32.8222L55.7756 32.107L57.907 37.6596L59.0151 37.2342L59.562 38.6589L58.4539 39.0842L59.0475 40.6307L57.4037 41.2617ZM53.8279 39.2254L56.3728 38.2485L54.9378 34.5103L53.8279 39.2254Z" fill="white"/>
</g>
</g>
</g>
<g filter="url(#filter8_d_61_2)">
<rect x="37.9994" y="27.9981" width="66" height="25" rx="5.92863" fill="#2A50AD"/>
</g>
<defs>
<filter id="filter0_d_61_2" x="34.707" y="2.07984e-07" width="75.0184" height="43.5278" filterUnits="userSpaceOnUse" color-interpolation-filters="sRGB">
<feFlood flood-opacity="0" result="BackgroundImageFix"/>
<feColorMatrix in="SourceAlpha" type="matrix" values="0 0 0 0 0 0 0 0 0 0 0 0 0 0 0 0 0 0 127 0" result="hardAlpha"/>
<feOffset dx="2" dy="2"/>
<feGaussianBlur stdDeviation="4"/>
<feComposite in2="hardAlpha" operator="out"/>
<feColorMatrix type="matrix" values="0 0 0 0 0 0 0 0 0 0 0 0 0 0 0 0 0 0 0.05 0"/>
<feBlend mode="normal" in2="BackgroundImageFix" result="effect1_dropShadow_61_2"/>
<feBlend mode="normal" in="SourceGraphic" in2="effect1_dropShadow_61_2" result="shape"/>
</filter>
<filter id="filter1_f_61_2" x="39.9586" y="7.00483" width="60.6245" height="25.3737" filterUnits="userSpaceOnUse" color-interpolation-filters="sRGB">
<feFlood flood-opacity="0" result="BackgroundImageFix"/>
<feBlend mode="normal" in="SourceGraphic" in2="BackgroundImageFix" result="shape"/>
<feGaussianBlur stdDeviation="2.48" result="effect1_foregroundBlur_61_2"/>
</filter>
<filter id="filter2_d_61_2" x="71.5992" y="19.7305" width="76.2441" height="49.9028" filterUnits="userSpaceOnUse" color-interpolation-filters="sRGB">
<feFlood flood-opacity="0" result="BackgroundImageFix"/>
<feColorMatrix in="SourceAlpha" type="matrix" values="0 0 0 0 0 0 0 0 0 0 0 0 0 0 0 0 0 0 127 0" result="hardAlpha"/>
<feOffset dx="2" dy="2"/>
<feGaussianBlur stdDeviation="4"/>
<feComposite in2="hardAlpha" operator="out"/>
<feColorMatrix type="matrix" values="0 0 0 0 0 0 0 0 0 0 0 0 0 0 0 0 0 0 0.05 0"/>
<feBlend mode="normal" in2="BackgroundImageFix" result="effect1_dropShadow_61_2"/>
<feBlend mode="normal" in="SourceGraphic" in2="effect1_dropShadow_61_2" result="shape"/>
</filter>
<filter id="filter3_f_61_2" x="77.4743" y="27.0536" width="60.6476" height="31.1608" filterUnits="userSpaceOnUse" color-interpolation-filters="sRGB">
<feFlood flood-opacity="0" result="BackgroundImageFix"/>
<feBlend mode="normal" in="SourceGraphic" in2="BackgroundImageFix" result="shape"/>
<feGaussianBlur stdDeviation="2.48" result="effect1_foregroundBlur_61_2"/>
</filter>
<filter id="filter4_d_61_2" x="37.8652" y="40.892" width="75.0194" height="43.5317" filterUnits="userSpaceOnUse" color-interpolation-filters="sRGB">
<feFlood flood-opacity="0" result="BackgroundImageFix"/>
<feColorMatrix in="SourceAlpha" type="matrix" values="0 0 0 0 0 0 0 0 0 0 0 0 0 0 0 0 0 0 127 0" result="hardAlpha"/>
<feOffset dx="2" dy="2"/>
<feGaussianBlur stdDeviation="4"/>
<feComposite in2="hardAlpha" operator="out"/>
<feColorMatrix type="matrix" values="0 0 0 0 0 0 0 0 0 0 0 0 0 0 0 0 0 0 0.05 0"/>
<feBlend mode="normal" in2="BackgroundImageFix" result="effect1_dropShadow_61_2"/>
<feBlend mode="normal" in="SourceGraphic" in2="effect1_dropShadow_61_2" result="shape"/>
</filter>
<filter id="filter5_f_61_2" x="43.1171" y="47.897" width="60.6248" height="25.3772" filterUnits="userSpaceOnUse" color-interpolation-filters="sRGB">
<feFlood flood-opacity="0" result="BackgroundImageFix"/>
<feBlend mode="normal" in="SourceGraphic" in2="BackgroundImageFix" result="shape"/>
<feGaussianBlur stdDeviation="2.48" result="effect1_foregroundBlur_61_2"/>
</filter>
<filter id="filter6_d_61_2" x="-1" y="19.3653" width="76.3583" height="55.2149" filterUnits="userSpaceOnUse" color-interpolation-filters="sRGB">
<feFlood flood-opacity="0" result="BackgroundImageFix"/>
<feColorMatrix in="SourceAlpha" type="matrix" values="0 0 0 0 0 0 0 0 0 0 0 0 0 0 0 0 0 0 127 0" result="hardAlpha"/>
<feOffset dx="2" dy="2"/>
<feGaussianBlur stdDeviation="4"/>
<feComposite in2="hardAlpha" operator="out"/>
<feColorMatrix type="matrix" values="0 0 0 0 0 0 0 0 0 0 0 0 0 0 0 0 0 0 0.05 0"/>
<feBlend mode="normal" in2="BackgroundImageFix" result="effect1_dropShadow_61_2"/>
<feBlend mode="normal" in="SourceGraphic" in2="effect1_dropShadow_61_2" result="shape"/>
</filter>
<filter id="filter7_f_61_2" x="5.25758" y="26.5755" width="59.9141" height="36.6278" filterUnits="userSpaceOnUse" color-interpolation-filters="sRGB">
<feFlood flood-opacity="0" result="BackgroundImageFix"/>
<feBlend mode="normal" in="SourceGraphic" in2="BackgroundImageFix" result="shape"/>
<feGaussianBlur stdDeviation="2.48" result="effect1_foregroundBlur_61_2"/>
</filter>
<filter id="filter8_d_61_2" x="31.9994" y="21.9981" width="82" height="41" filterUnits="userSpaceOnUse" color-interpolation-filters="sRGB">
<feFlood flood-opacity="0" result="BackgroundImageFix"/>
<feColorMatrix in="SourceAlpha" type="matrix" values="0 0 0 0 0 0 0 0 0 0 0 0 0 0 0 0 0 0 127 0" result="hardAlpha"/>
<feOffset dx="2" dy="2"/>
<feGaussianBlur stdDeviation="4"/>
<feComposite in2="hardAlpha" operator="out"/>
<feColorMatrix type="matrix" values="0 0 0 0 0 0 0 0 0 0 0 0 0 0 0 0 0 0 0.05 0"/>
<feBlend mode="normal" in2="BackgroundImageFix" result="effect1_dropShadow_61_2"/>
<feBlend mode="normal" in="SourceGraphic" in2="effect1_dropShadow_61_2" result="shape"/>
</filter>
<clipPath id="clip0_61_2">
<rect x="40.707" y="12.9321" width="56.9148" height="20.7502" rx="5.92863" transform="rotate(-6.99589 40.707 12.9321)" fill="white"/>
</clipPath>
<clipPath id="clip1_61_2">
<rect x="82.6191" y="25.7305" width="56.9148" height="20.7502" rx="5.92863" transform="rotate(14 82.6191 25.7305)" fill="white"/>
</clipPath>
<clipPath id="clip2_61_2">
<rect x="43.8652" y="53.8281" width="56.9148" height="20.7502" rx="5.92863" transform="rotate(-7 43.8652 53.8281)" fill="white"/>
</clipPath>
<clipPath id="clip3_61_2">
<rect x="5" y="45.7617" width="56.9148" height="20.1573" rx="5.92863" transform="rotate(-21 5 45.7617)" fill="white"/>
</clipPath>
</defs>
</svg>
