<svg width="192" height="138" viewBox="0 0 192 138" fill="none" xmlns="http://www.w3.org/2000/svg">
<circle cx="96" cy="77.5" r="54" fill="#F2F4F7"/>
<path d="M117 72.8332H75M105.333 54.1665V63.4998M86.6667 54.1665V63.4998M86.2 100.833H105.8C109.72 100.833 111.681 100.833 113.178 100.07C114.495 99.3991 115.566 98.3282 116.237 97.0111C117 95.5137 117 93.5535 117 89.6332V70.0332C117 66.1128 117 64.1526 116.237 62.6552C115.566 61.3381 114.495 60.2672 113.178 59.5961C111.681 58.8332 109.72 58.8332 105.8 58.8332H86.2C82.2796 58.8332 80.3194 58.8332 78.8221 59.5961C77.5049 60.2672 76.4341 61.3381 75.763 62.6552C75 64.1526 75 66.1128 75 70.0332V89.6332C75 93.5535 75 95.5137 75.763 97.0111C76.4341 98.3282 77.5049 99.3991 78.8221 100.07C80.3194 100.833 82.2796 100.833 86.2 100.833Z" stroke="#475467" stroke-width="4" stroke-linecap="round" stroke-linejoin="round"/>
<circle cx="42" cy="23.5" r="8" fill="#F2F4F7"/>
<circle cx="152" cy="120.5" r="6" fill="#F2F4F7"/>
<circle cx="32" cy="116.5" r="10" fill="#F2F4F7"/>
<circle cx="175" cy="48.5" r="10" fill="#F2F4F7"/>
<circle cx="145" cy="12.5" r="7" fill="#F2F4F7"/>
</svg>
