<svg width="309" height="346" viewBox="0 0 309 346" fill="none" xmlns="http://www.w3.org/2000/svg">
<g filter="url(#filter0_d_62_95)">
<g clip-path="url(#clip0_62_95)">
<rect x="8" y="8" width="293" height="330" rx="12" fill="#06061B"/>
<path fill-rule="evenodd" clip-rule="evenodd" d="M112.706 287.492C115.11 287.406 118.086 286.152 119.63 288.016C121.177 289.884 119.622 292.675 118.93 295.008C118.483 296.512 117.4 297.542 116.435 298.774C115.237 300.304 114.613 302.647 112.706 302.957C110.711 303.282 108.942 301.693 107.542 300.222C106.175 298.785 105.361 296.988 105.144 295.008C104.894 292.731 104.638 290.1 106.254 288.493C107.866 286.891 110.445 287.572 112.706 287.492Z" fill="#395174"/>
<path fill-rule="evenodd" clip-rule="evenodd" d="M90.7058 224.492C93.1103 224.406 96.0863 223.152 97.6298 225.016C99.1767 226.884 97.6224 229.675 96.9298 232.008C96.4832 233.512 95.3996 234.542 94.4353 235.774C93.2373 237.304 92.6128 239.647 90.7058 239.957C88.7109 240.282 86.9417 238.693 85.5419 237.222C84.1753 235.785 83.3612 233.988 83.1439 232.008C82.894 229.731 82.6378 227.1 84.2544 225.493C85.8663 223.891 88.4454 224.572 90.7058 224.492Z" fill="#121225"/>
<path fill-rule="evenodd" clip-rule="evenodd" d="M119.769 5.3688C121.573 5.30445 123.805 4.36426 124.962 5.76212C126.122 7.16316 124.957 9.25645 124.437 11.0058C124.102 12.1337 123.289 12.9066 122.566 13.8303C121.668 14.9779 121.199 16.7351 119.769 16.968C118.273 17.2116 116.946 16.0201 115.896 14.9165C114.871 13.8389 114.261 12.4908 114.098 11.0058C113.91 9.29836 113.718 7.3252 114.931 6.12008C116.14 4.91847 118.074 5.4293 119.769 5.3688Z" fill="#456BA5"/>
<path fill-rule="evenodd" clip-rule="evenodd" d="M52.7058 164.492C55.1103 164.406 58.0863 163.152 59.6298 165.016C61.1767 166.884 59.6224 169.675 58.9298 172.008C58.4833 173.512 57.3996 174.542 56.4353 175.774C55.2373 177.304 54.6128 179.647 52.7058 179.957C50.7109 180.282 48.9417 178.693 47.5419 177.222C46.1753 175.785 45.3612 173.988 45.1439 172.008C44.894 169.731 44.6378 167.1 46.2544 165.493C47.8664 163.891 50.4454 164.572 52.7058 164.492Z" fill="#739DAC"/>
<path fill-rule="evenodd" clip-rule="evenodd" d="M10.7058 254.492C13.1103 254.406 16.0863 253.152 17.6298 255.016C19.1767 256.884 17.6224 259.675 16.9298 262.008C16.4832 263.512 15.3996 264.542 14.4353 265.774C13.2373 267.304 12.6128 269.647 10.7058 269.957C8.71089 270.282 6.9417 268.693 5.54195 267.222C4.17525 265.785 3.36124 263.988 3.14388 262.008C2.89396 259.731 2.6378 257.1 4.25443 255.493C5.86635 253.891 8.44537 254.572 10.7058 254.492Z" fill="#121225"/>
<path fill-rule="evenodd" clip-rule="evenodd" d="M190.706 24.4917C193.11 24.4059 196.086 23.1523 197.63 25.0162C199.177 26.8842 197.622 29.6753 196.93 32.0078C196.483 33.5116 195.4 34.5421 194.435 35.7737C193.237 37.3038 192.613 39.6467 190.706 39.9573C188.711 40.2822 186.942 38.6935 185.542 37.222C184.175 35.7852 183.361 33.9878 183.144 32.0078C182.894 29.7311 182.638 27.1003 184.254 25.4934C185.866 23.8913 188.445 24.5724 190.706 24.4917Z" fill="#121225"/>
<path fill-rule="evenodd" clip-rule="evenodd" d="M270.769 291.369C272.573 291.304 274.805 290.364 275.962 291.762C277.122 293.163 275.957 295.256 275.437 297.006C275.102 298.134 274.289 298.907 273.566 299.83C272.668 300.978 272.199 302.735 270.769 302.968C269.273 303.212 267.946 302.02 266.896 300.916C265.871 299.839 265.261 298.491 265.098 297.006C264.91 295.298 264.718 293.325 265.931 292.12C267.14 290.918 269.074 291.429 270.769 291.369Z" fill="#121225"/>
<path fill-rule="evenodd" clip-rule="evenodd" d="M58.7691 310.369C60.5725 310.304 62.8045 309.364 63.9621 310.762C65.1223 312.163 63.9566 314.256 63.4371 316.006C63.1022 317.134 62.2894 317.907 61.5662 318.83C60.6677 319.978 60.1994 321.735 58.7691 321.968C57.2729 322.212 55.946 321.02 54.8962 319.916C53.8712 318.839 53.2607 317.491 53.0977 316.006C52.9102 314.298 52.7181 312.325 53.9306 311.12C55.1395 309.918 57.0738 310.429 58.7691 310.369Z" fill="#121225"/>
<path fill-rule="evenodd" clip-rule="evenodd" d="M212.321 150.042C214.387 150.104 216.466 150.539 217.99 152.065C219.579 153.655 221.003 155.966 220.536 158.265C220.096 160.43 217.465 160.764 215.929 162.21C214.615 163.446 214.052 165.902 212.321 165.997C210.577 166.092 209.327 164.196 208.335 162.625C207.53 161.351 207.717 159.783 207.438 158.265C207.023 156.002 205.182 153.65 206.331 151.714C207.498 149.75 210.18 149.978 212.321 150.042Z" fill="#121225"/>
<path fill-rule="evenodd" clip-rule="evenodd" d="M81.3212 58.0422C83.3868 58.1043 85.466 58.5393 86.9903 60.0651C88.5787 61.6552 90.0028 63.9661 89.5356 66.2651C89.0957 68.4297 86.4654 68.7638 84.9286 70.2102C83.6153 71.4463 83.0516 73.902 81.3212 73.9965C79.577 74.0918 78.327 72.1964 77.3346 70.625C76.5299 69.3508 76.7171 67.7833 76.4384 66.2651C76.0228 64.0019 74.1819 61.6504 75.3314 59.7145C76.4981 57.7497 79.1798 57.9778 81.3212 58.0422Z" fill="#121225"/>
<path fill-rule="evenodd" clip-rule="evenodd" d="M6.32116 128.042C8.38678 128.104 10.466 128.539 11.9903 130.065C13.5787 131.655 15.0028 133.966 14.5356 136.265C14.0957 138.43 11.4654 138.764 9.92855 140.21C8.61532 141.446 8.0516 143.902 6.32116 143.997C4.57701 144.092 3.32701 142.196 2.33456 140.625C1.52989 139.351 1.71709 137.783 1.43835 136.265C1.02284 134.002 -0.818143 131.65 0.331434 129.714C1.49813 127.75 4.17983 127.978 6.32116 128.042Z" fill="#121225"/>
<path fill-rule="evenodd" clip-rule="evenodd" d="M256.769 1.3688C258.573 1.30445 260.805 0.364259 261.962 1.76212C263.122 3.16316 261.957 5.25645 261.437 7.00581C261.102 8.13369 260.289 8.90659 259.566 9.83028C258.668 10.9779 258.199 12.7351 256.769 12.968C255.273 13.2116 253.946 12.0201 252.896 10.9165C251.871 9.83891 251.261 8.49085 251.098 7.00581C250.91 5.29836 250.718 3.3252 251.931 2.12008C253.14 0.918472 255.074 1.4293 256.769 1.3688Z" fill="#121225"/>
<path fill-rule="evenodd" clip-rule="evenodd" d="M284.832 71.2459C286.035 71.203 287.523 70.5762 288.294 71.5081C289.068 72.4421 288.291 73.8376 287.944 75.0039C287.721 75.7558 287.179 76.2711 286.697 76.8869C286.098 77.6519 285.786 78.8234 284.832 78.9787C283.835 79.1411 282.95 78.3467 282.251 77.611C281.567 76.8926 281.16 75.9939 281.051 75.0039C280.927 73.8656 280.798 72.5501 281.607 71.7467C282.413 70.9456 283.702 71.2862 284.832 71.2459Z" fill="#121225"/>
<path fill-rule="evenodd" clip-rule="evenodd" d="M40.8324 236.246C42.0347 236.203 43.5227 235.576 44.2944 236.508C45.0679 237.442 44.2908 238.838 43.9444 240.004C43.7212 240.756 43.1793 241.271 42.6972 241.887C42.0982 242.652 41.7859 243.823 40.8324 243.979C39.835 244.141 38.9504 243.347 38.2505 242.611C37.5672 241.893 37.1602 240.994 37.0515 240.004C36.9265 238.866 36.7984 237.55 37.6068 236.747C38.4127 235.946 39.7022 236.286 40.8324 236.246Z" fill="#8C7944"/>
<path fill-rule="evenodd" clip-rule="evenodd" d="M84.8324 141.246C86.0347 141.203 87.5227 140.576 88.2944 141.508C89.0679 142.442 88.2908 143.838 87.9444 145.004C87.7212 145.756 87.1793 146.271 86.6972 146.887C86.0982 147.652 85.7859 148.823 84.8324 148.979C83.835 149.141 82.9504 148.347 82.2505 147.611C81.5672 146.893 81.1602 145.994 81.0515 145.004C80.9265 143.866 80.7984 142.55 81.6068 141.747C82.4127 140.946 83.7022 141.286 84.8324 141.246Z" fill="#121225"/>
<path fill-rule="evenodd" clip-rule="evenodd" d="M244.832 221.246C246.035 221.203 247.523 220.576 248.294 221.508C249.068 222.442 248.291 223.838 247.944 225.004C247.721 225.756 247.179 226.271 246.697 226.887C246.098 227.652 245.786 228.823 244.832 228.979C243.835 229.141 242.95 228.347 242.251 227.611C241.567 226.893 241.16 225.994 241.051 225.004C240.927 223.866 240.798 222.55 241.607 221.747C242.413 220.946 243.702 221.286 244.832 221.246Z" fill="#B27E46"/>
<path fill-rule="evenodd" clip-rule="evenodd" d="M302.363 184.599C305.754 184.579 309.844 179.616 312.121 183.459C314.42 187.341 311.348 193.293 310.524 198.377C309.998 201.621 309.613 204.764 308.244 207.369C306.666 210.373 304.865 213.449 302.363 213.911C299.626 214.417 296.878 212.723 294.865 209.843C292.786 206.868 291.867 202.695 291.508 198.377C291.082 193.252 290.082 186.875 292.682 183.575C295.269 180.291 299 184.62 302.363 184.599Z" fill="#2A6C4D"/>
<path fill-rule="evenodd" clip-rule="evenodd" d="M16.5316 73.3517C17.8217 76.4878 23.9566 78.4187 21.2472 81.9697C18.5098 85.5574 11.8408 84.9405 6.8181 86.0825C3.61387 86.8111 0.555807 87.6324 -2.3727 87.3402C-5.7494 87.0033 -9.27543 86.4866 -10.6422 84.3405C-12.1375 81.9926 -11.5975 78.8097 -9.68167 75.8635C-7.70347 72.8214 -4.17974 70.4048 -0.311042 68.4532C4.28123 66.1367 9.81767 62.8189 13.8521 63.9922C17.8667 65.1598 15.2523 70.2416 16.5316 73.3517Z" fill="#AA965E"/>
<path fill-rule="evenodd" clip-rule="evenodd" d="M255.868 102.228C256.707 102.378 257.531 102.696 258.076 103.437C258.58 104.122 258.678 105.056 258.603 105.946C258.536 106.745 258.12 107.38 257.69 108.017C257.158 108.805 256.741 109.947 255.868 109.998C254.988 110.05 254.49 108.928 253.845 108.245C253.158 107.517 252.226 106.993 252.041 105.946C251.828 104.735 252.007 103.3 252.833 102.497C253.635 101.718 254.826 102.041 255.868 102.228Z" fill="#C0DCFD"/>
<path fill-rule="evenodd" clip-rule="evenodd" d="M302.686 9.68416C305.202 10.1352 307.675 11.0884 309.309 13.3097C310.823 15.3673 311.117 18.1682 310.892 20.8383C310.69 23.2358 309.442 25.1414 308.153 27.0521C306.557 29.4159 305.303 32.8397 302.686 32.9947C300.045 33.1511 298.552 29.7841 296.618 27.7353C294.556 25.5523 291.759 23.9784 291.206 20.8383C290.567 17.2046 291.104 12.8985 293.582 10.4905C295.987 8.1535 299.56 9.12389 302.686 9.68416Z" fill="#F04438"/>
<path fill-rule="evenodd" clip-rule="evenodd" d="M12.6857 297.684C15.2021 298.135 17.6751 299.088 19.3093 301.31C20.8231 303.367 21.1167 306.168 20.8919 308.838C20.6901 311.236 19.4424 313.141 18.1526 315.052C16.5569 317.416 15.3034 320.84 12.6857 320.995C10.045 321.151 8.55248 317.784 6.61777 315.735C4.55643 313.552 1.75911 311.978 1.2063 308.838C0.566565 305.205 1.10359 300.899 3.58179 298.491C5.98698 296.154 9.56004 297.124 12.6857 297.684Z" fill="#DD908A"/>
</g>
</g>
<defs>
<filter id="filter0_d_62_95" x="0" y="0" width="309" height="346" filterUnits="userSpaceOnUse" color-interpolation-filters="sRGB">
<feFlood flood-opacity="0" result="BackgroundImageFix"/>
<feColorMatrix in="SourceAlpha" type="matrix" values="0 0 0 0 0 0 0 0 0 0 0 0 0 0 0 0 0 0 127 0" result="hardAlpha"/>
<feOffset/>
<feGaussianBlur stdDeviation="4"/>
<feComposite in2="hardAlpha" operator="out"/>
<feColorMatrix type="matrix" values="0 0 0 0 0.918592 0 0 0 0 0.942144 0 0 0 0 1 0 0 0 0.5 0"/>
<feBlend mode="normal" in2="BackgroundImageFix" result="effect1_dropShadow_62_95"/>
<feBlend mode="normal" in="SourceGraphic" in2="effect1_dropShadow_62_95" result="shape"/>
</filter>
<clipPath id="clip0_62_95">
<rect x="8" y="8" width="293" height="330" rx="12" fill="white"/>
</clipPath>
</defs>
</svg>
