<svg width="104" height="80" viewBox="0 0 104 80" fill="none" xmlns="http://www.w3.org/2000/svg">
<circle cx="50.1407" cy="46.5118" r="33.4884" fill="#F4F8FF"/>
<circle cx="22.848" cy="17.3636" r="4.96124" fill="#F4F8FF"/>
<circle cx="90.4436" cy="68.8381" r="3.72093" fill="#F4F8FF"/>
<circle cx="12.307" cy="64.4984" r="6.20155" fill="#F4F8FF"/>
<circle cx="95.4086" cy="33.4906" r="6.20155" fill="#F4F8FF"/>
<circle cx="75.5637" cy="11.7825" r="4.34109" fill="#F4F8FF"/>
<path d="M50.1401 50.8541C45.5529 50.8541 41.4735 53.069 38.8764 56.5061C38.3174 57.2459 38.038 57.6158 38.0471 58.1157C38.0542 58.5019 38.2967 58.9891 38.6006 59.2276C38.9939 59.5363 39.539 59.5363 40.6291 59.5363H59.6511C60.7412 59.5363 61.2863 59.5363 61.6796 59.2276C61.9835 58.9891 62.226 58.5019 62.2331 58.1157C62.2422 57.6158 61.9627 57.2459 61.4038 56.5061C58.8066 53.069 54.7273 50.8541 50.1401 50.8541Z" stroke="#2A50AD" stroke-width="2.17054" stroke-linecap="round" stroke-linejoin="round"/>
<path d="M50.1401 46.513C53.7364 46.513 56.6517 43.5976 56.6517 40.0014C56.6517 36.4051 53.7364 33.4897 50.1401 33.4897C46.5438 33.4897 43.6285 36.4051 43.6285 40.0014C43.6285 43.5976 46.5438 46.513 50.1401 46.513Z" stroke="#2A50AD" stroke-width="2.17054" stroke-linecap="round" stroke-linejoin="round"/>
</svg>
