<svg width="283" height="172" viewBox="0 0 283 172" fill="none" xmlns="http://www.w3.org/2000/svg">
<g clip-path="url(#clip0_17_1682)">
<rect x="0.24939" width="282.5" height="172" rx="16" fill="#FEF6FB"/>
<g clip-path="url(#clip1_17_1682)">
<mask id="mask0_17_1682" style="mask-type:luminance" maskUnits="userSpaceOnUse" x="169" y="62" width="136" height="135">
<path d="M293.388 62.6502L169.849 73.3281L180.527 196.868L304.066 186.19L293.388 62.6502Z" fill="white"/>
</mask>
<g mask="url(#mask0_17_1682)">
<path fill-rule="evenodd" clip-rule="evenodd" d="M233.415 88.7715C228.951 89.1573 225.646 93.0885 226.032 97.5521L205.249 99.3484C203.871 83.407 215.677 69.367 231.619 67.9892C247.56 66.6113 261.6 78.4173 262.978 94.3587C264.356 110.3 252.55 124.34 236.608 125.718L234.812 104.936C239.276 104.55 242.581 100.619 242.195 96.155C241.81 91.6914 237.878 88.3857 233.415 88.7715ZM277.945 126.216C277.559 121.753 273.628 118.447 269.164 118.833L267.368 98.0504C283.31 96.6725 297.35 108.479 298.727 124.42C300.105 140.361 288.299 154.401 272.358 155.779C256.416 157.157 242.377 145.351 240.999 129.41L261.781 127.613C262.167 132.077 266.098 135.382 270.562 134.997C275.025 134.611 278.331 130.68 277.945 126.216ZM204.751 140.685C200.287 141.071 196.356 137.765 195.97 133.302C195.585 128.838 198.89 124.907 203.354 124.521C207.817 124.135 211.749 127.441 212.134 131.904L232.917 130.108C231.539 114.167 217.499 102.361 201.557 103.739C185.616 105.116 173.81 119.156 175.188 135.098C176.566 151.039 190.606 162.845 206.547 161.467L204.751 140.685ZM240.5 170.746C244.964 170.36 248.27 166.429 247.884 161.966L268.666 160.169C270.044 176.111 258.238 190.151 242.297 191.529C226.355 192.906 212.315 181.101 210.937 165.159C209.56 149.218 221.366 135.178 237.307 133.8L239.103 154.582C234.64 154.968 231.334 158.899 231.72 163.363C232.106 167.826 236.037 171.132 240.5 170.746Z" fill="url(#paint0_linear_17_1682)"/>
</g>
</g>
<g clip-path="url(#clip2_17_1682)">
<mask id="mask1_17_1682" style="mask-type:luminance" maskUnits="userSpaceOnUse" x="169" y="62" width="136" height="135">
<path d="M293.388 62.6502L169.849 73.3281L180.527 196.868L304.066 186.19L293.388 62.6502Z" fill="white"/>
</mask>
<g mask="url(#mask1_17_1682)">
<path fill-rule="evenodd" clip-rule="evenodd" d="M233.415 88.7715C228.951 89.1573 225.646 93.0885 226.032 97.5521L205.249 99.3484C203.871 83.407 215.677 69.367 231.619 67.9892C247.56 66.6113 261.6 78.4173 262.978 94.3587C264.356 110.3 252.55 124.34 236.608 125.718L234.812 104.936C239.276 104.55 242.581 100.619 242.195 96.155C241.81 91.6914 237.878 88.3857 233.415 88.7715ZM277.945 126.216C277.559 121.753 273.628 118.447 269.164 118.833L267.368 98.0504C283.31 96.6725 297.35 108.479 298.727 124.42C300.105 140.361 288.299 154.401 272.358 155.779C256.416 157.157 242.377 145.351 240.999 129.41L261.781 127.613C262.167 132.077 266.098 135.382 270.562 134.997C275.025 134.611 278.331 130.68 277.945 126.216ZM204.751 140.685C200.287 141.071 196.356 137.765 195.97 133.302C195.585 128.838 198.89 124.907 203.354 124.521C207.817 124.135 211.749 127.441 212.134 131.904L232.917 130.108C231.539 114.167 217.499 102.361 201.557 103.739C185.616 105.116 173.81 119.156 175.188 135.098C176.566 151.039 190.606 162.845 206.547 161.467L204.751 140.685ZM240.5 170.746C244.964 170.36 248.27 166.429 247.884 161.966L268.666 160.169C270.044 176.111 258.238 190.151 242.297 191.529C226.355 192.906 212.315 181.101 210.937 165.159C209.56 149.218 221.366 135.178 237.307 133.8L239.103 154.582C234.64 154.968 231.334 158.899 231.72 163.363C232.106 167.826 236.037 171.132 240.5 170.746Z" fill="url(#paint1_linear_17_1682)"/>
<path fill-rule="evenodd" clip-rule="evenodd" d="M233.415 88.7715C228.951 89.1573 225.646 93.0885 226.032 97.5521L205.249 99.3484C203.871 83.407 215.677 69.367 231.619 67.9892C247.56 66.6113 261.6 78.4173 262.978 94.3587C264.356 110.3 252.55 124.34 236.608 125.718L234.812 104.936C239.276 104.55 242.581 100.619 242.195 96.155C241.81 91.6914 237.878 88.3857 233.415 88.7715ZM277.945 126.216C277.559 121.753 273.628 118.447 269.164 118.833L267.368 98.0504C283.31 96.6725 297.35 108.479 298.727 124.42C300.105 140.361 288.299 154.401 272.358 155.779C256.416 157.157 242.377 145.351 240.999 129.41L261.781 127.613C262.167 132.077 266.098 135.382 270.562 134.997C275.025 134.611 278.331 130.68 277.945 126.216ZM204.751 140.685C200.287 141.071 196.356 137.765 195.97 133.302C195.585 128.838 198.89 124.907 203.354 124.521C207.817 124.135 211.749 127.441 212.134 131.904L232.917 130.108C231.539 114.167 217.499 102.361 201.557 103.739C185.616 105.116 173.81 119.156 175.188 135.098C176.566 151.039 190.606 162.845 206.547 161.467L204.751 140.685ZM240.5 170.746C244.964 170.36 248.27 166.429 247.884 161.966L268.666 160.169C270.044 176.111 258.238 190.151 242.297 191.529C226.355 192.906 212.315 181.101 210.937 165.159C209.56 149.218 221.366 135.178 237.307 133.8L239.103 154.582C234.64 154.968 231.334 158.899 231.72 163.363C232.106 167.826 236.037 171.132 240.5 170.746Z" fill="url(#paint2_linear_17_1682)"/>
</g>
</g>
</g>
<defs>
<linearGradient id="paint0_linear_17_1682" x1="169.849" y1="73.3281" x2="304.066" y2="186.19" gradientUnits="userSpaceOnUse">
<stop stop-color="#FFF6B7"/>
<stop offset="1" stop-color="#FB758A"/>
</linearGradient>
<linearGradient id="paint1_linear_17_1682" x1="169.849" y1="73.3281" x2="304.066" y2="186.19" gradientUnits="userSpaceOnUse">
<stop stop-color="#FFF6B7"/>
<stop offset="1" stop-color="#FB758A"/>
</linearGradient>
<linearGradient id="paint2_linear_17_1682" x1="263.249" y1="138.5" x2="180.749" y2="101" gradientUnits="userSpaceOnUse">
<stop offset="0.0509862" stop-color="#EE93C8"/>
<stop offset="1" stop-color="#FBE3EA"/>
</linearGradient>
<clipPath id="clip0_17_1682">
<rect x="0.24939" width="282.5" height="172" rx="16" fill="white"/>
</clipPath>
<clipPath id="clip1_17_1682">
<rect width="124" height="124" fill="white" transform="translate(169.849 73.3281) rotate(-4.94)"/>
</clipPath>
<clipPath id="clip2_17_1682">
<rect width="124" height="124" fill="white" transform="translate(169.849 73.3281) rotate(-4.94)"/>
</clipPath>
</defs>
</svg>
